<svg width="370" height="423" viewBox="0 0 370 423" fill="none" xmlns="http://www.w3.org/2000/svg">
<g clip-path="url(#clip0_340_16297)">
<path fill-rule="evenodd" clip-rule="evenodd" d="M229.529 320.402C229.529 320.402 220.389 306.631 229.529 284.292C233.252 275.417 318.889 212.377 318.889 212.377L316.181 203.809C316.181 203.809 276.916 244.203 262.023 252.772C247.13 261.034 242.729 262.564 242.729 262.564C242.729 262.564 246.453 223.7 259.315 207.481V197.994C259.315 197.994 253.899 198.3 247.13 190.344C240.36 182.693 244.76 128.834 244.76 128.834L229.19 80.1769L224.79 80.483C224.79 80.483 240.699 116.899 242.052 131.894C243.745 146.583 236.637 163.414 236.637 163.414C236.637 163.414 217.682 152.703 210.235 135.26H201.773C201.773 135.26 238.329 168.616 239.683 173.207C241.375 178.103 242.391 197.076 242.391 197.076C242.391 197.076 247.807 199.83 248.484 204.421C249.161 209.011 242.391 247.263 239.683 250.935C236.975 254.608 227.498 245.121 221.743 225.536C217.005 205.339 215.312 175.349 215.312 175.349L212.604 173.819C212.604 173.819 217.343 203.503 218.358 219.416C219.374 235.329 236.637 259.198 236.637 259.198C236.637 259.198 237.652 261.34 237.991 268.073C238.668 274.805 220.728 280.007 220.728 280.007L218.358 284.598L221.405 287.046C221.405 287.046 215.651 312.445 212.943 318.26L229.529 320.402Z" fill="#A53616"/>
<path fill-rule="evenodd" clip-rule="evenodd" d="M218.697 221.252L214.635 215.743C214.635 215.743 197.034 218.497 178.756 208.093C160.478 197.688 157.431 160.966 157.431 160.966C157.431 160.966 179.771 159.742 199.403 175.043C214.297 186.672 214.974 213.295 214.974 213.295L218.697 219.11V221.252Z" fill="#A53616"/>
<path fill-rule="evenodd" clip-rule="evenodd" d="M224.79 278.477V274.805C224.79 274.805 229.529 263.482 224.79 253.078C220.051 242.673 204.481 237.165 189.926 239.001C189.926 239.001 217.005 262.258 222.759 274.805L223.774 278.783L224.79 278.477Z" fill="#EC4E20"/>
<path fill-rule="evenodd" clip-rule="evenodd" d="M219.036 147.807C219.036 147.807 214.974 112.309 208.543 100.986C202.111 89.6635 185.864 78.9529 151 80.177C151 80.177 157.431 98.5381 174.017 119.041C188.233 136.79 215.651 143.829 215.651 143.829L219.036 147.807Z" fill="#A53616"/>
<path fill-rule="evenodd" clip-rule="evenodd" d="M256.607 260.116L265.408 264.706C265.408 264.706 280.301 258.892 294.856 266.848C309.411 274.805 309.411 302.959 306.703 312.751C306.703 312.751 286.394 308.161 273.532 295.308C260.669 282.761 265.408 265.93 265.408 265.93L252.546 263.176L256.607 260.116Z" fill="#A53616"/>
<path fill-rule="evenodd" clip-rule="evenodd" d="M276.24 244.815L273.87 234.41C273.87 234.41 272.855 201.36 261.346 175.961C261.346 175.961 248.484 194.628 248.484 209.317C248.484 222.17 272.855 233.798 272.855 233.798L275.224 245.427L276.24 244.815Z" fill="#A53616"/>
<path opacity="0.3" fill-rule="evenodd" clip-rule="evenodd" d="M271.501 212.071L248.484 209.623C248.484 209.623 254.915 226.148 272.855 234.104L271.501 212.071Z" fill="#699136"/>
<path fill-rule="evenodd" clip-rule="evenodd" d="M245.099 128.834L251.53 122.408C251.53 122.408 274.547 116.899 290.456 94.5598C306.026 72.2205 306.703 33.6621 306.703 33.6621C306.703 33.6621 267.1 46.5149 252.546 62.1218L259.315 76.8107L249.838 63.9579C249.838 63.9579 243.745 73.4445 239.006 84.4612C234.267 95.4779 247.807 121.489 247.807 121.489L243.406 124.856L245.099 128.834Z" fill="#EC4E20"/>
<path fill-rule="evenodd" clip-rule="evenodd" d="M232.237 97.926L223.436 86.2973C223.436 86.2973 197.034 65.182 169.278 66.1001C169.278 66.1001 180.787 53.8593 200.757 57.5315C220.728 61.2038 224.451 85.0732 224.451 85.0732L230.544 93.6418L232.237 97.926Z" fill="#EC4E20"/>
<path fill-rule="evenodd" clip-rule="evenodd" d="M231.559 85.9913V74.0566C231.559 74.0566 245.776 57.8376 244.76 36.4162C243.406 14.6889 219.035 0 219.035 0C219.035 0 211.589 22.9514 213.958 42.8426C216.328 63.0399 229.19 72.5265 229.19 72.5265L229.867 80.1769L231.559 85.9913Z" fill="#A53616"/>
<path fill-rule="evenodd" clip-rule="evenodd" d="M283.686 237.777L299.257 232.268C299.257 232.268 326.674 226.76 369.662 234.716C369.662 234.716 354.768 216.967 334.459 213.295C314.15 209.623 299.257 217.885 294.518 230.738L286.733 236.247L283.686 237.777Z" fill="#EC4E20"/>
<path fill-rule="evenodd" clip-rule="evenodd" d="M272.178 313.363C272.178 313.363 217.005 311.221 165.555 313.669L179.771 422.306H254.915L272.178 313.363Z" fill="url(#paint0_linear_340_16297)"/>
<path fill-rule="evenodd" clip-rule="evenodd" d="M272.178 313.363C272.178 313.363 220.728 317.954 165.555 313.669C165.555 313.669 215.312 311.527 272.178 313.363Z" fill="#FACC73"/>
<path fill-rule="evenodd" clip-rule="evenodd" d="M311.78 208.399L307.38 200.748C307.38 200.748 319.904 185.141 309.411 166.78C296.887 144.747 268.116 136.484 268.116 136.484C268.116 136.484 262.362 157.6 275.901 181.469C286.394 199.83 306.026 201.972 306.026 201.972L307.38 212.683C307.38 212.989 309.411 212.377 311.78 208.399Z" fill="#A53616"/>
<path fill-rule="evenodd" clip-rule="evenodd" d="M228.513 240.531V234.41C228.513 234.41 251.869 229.514 253.899 209.623C255.592 189.732 251.192 163.72 251.192 163.72C251.192 163.72 220.389 190.65 220.389 206.869C220.389 220.64 227.159 231.044 227.159 231.044V236.859L228.513 240.531Z" fill="#EC4E20"/>
<path opacity="0.3" fill-rule="evenodd" clip-rule="evenodd" d="M199.742 191.874L186.541 211.765C186.541 211.765 173.34 208.399 165.893 192.486L186.541 178.715C186.541 179.021 196.695 185.447 199.742 191.874Z" fill="#699136"/>
<path opacity="0.3" fill-rule="evenodd" clip-rule="evenodd" d="M181.125 175.043L160.816 179.021L159.462 174.125L177.402 171.983L181.125 175.043Z" fill="#699136"/>
<path opacity="0.5" fill-rule="evenodd" clip-rule="evenodd" d="M195.003 185.141L196.696 173.207C196.696 173.207 182.479 163.108 165.893 161.578V164.332C165.555 164.332 181.125 171.065 195.003 185.141Z" fill="#FACC73"/>
<path fill-rule="evenodd" clip-rule="evenodd" d="M215.651 214.519C215.651 214.519 198.049 174.125 157.431 160.966C157.431 160.966 193.649 174.431 215.651 214.519Z" fill="#A53616"/>
<path opacity="0.3" fill-rule="evenodd" clip-rule="evenodd" d="M341.567 231.044L351.045 219.416C351.045 219.416 339.198 212.071 323.289 212.377V230.432L341.567 231.044Z" fill="#699136"/>
<path opacity="0.3" fill-rule="evenodd" clip-rule="evenodd" d="M299.934 296.532C299.934 296.532 294.856 284.291 290.117 279.089L272.178 294.39C272.178 294.39 279.624 301.735 286.733 305.101L299.934 296.532Z" fill="#699136"/>
<path opacity="0.3" fill-rule="evenodd" clip-rule="evenodd" d="M288.087 278.171L267.439 286.434C267.439 286.434 265.408 281.843 265.07 279.089L285.717 275.417L288.087 278.171Z" fill="#699136"/>
<path fill-rule="evenodd" clip-rule="evenodd" d="M265.07 265.012C265.07 265.012 283.686 270.215 292.148 278.783C300.611 287.352 306.703 312.445 306.703 312.445C306.703 312.445 297.903 286.128 288.087 277.865C278.271 269.909 265.07 265.012 265.07 265.012Z" fill="#F6A444"/>
<path opacity="0.5" fill-rule="evenodd" clip-rule="evenodd" d="M302.303 274.193C302.303 274.193 289.779 271.439 283.009 272.357L265.07 264.4C265.07 264.4 279.286 261.034 288.425 265.012C297.903 268.685 302.303 274.193 302.303 274.193Z" fill="#FACC73"/>
<path fill-rule="evenodd" clip-rule="evenodd" d="M248.145 121.183C248.145 121.183 261.008 92.1117 266.762 77.1167C272.855 62.1218 305.011 33.9681 305.011 33.9681C305.011 33.9681 276.24 63.9579 269.808 77.1167C263.377 90.5816 248.145 121.183 248.145 121.183Z" fill="#F6A444"/>
<path fill-rule="evenodd" clip-rule="evenodd" d="M208.543 135.26C208.543 135.26 202.45 113.533 196.696 104.352C190.941 94.8658 151 80.1769 151 80.1769C151 80.1769 183.495 93.3358 192.295 103.74C201.096 113.839 208.543 135.26 208.543 135.26Z" fill="#F6A444"/>
<path opacity="0.3" fill-rule="evenodd" clip-rule="evenodd" d="M296.21 83.8492L273.193 71.6084L260.669 96.0899L271.162 113.227C271.501 113.227 288.763 101.292 296.21 83.8492Z" fill="#699136"/>
<path opacity="0.5" fill-rule="evenodd" clip-rule="evenodd" d="M283.009 42.8427V55.6954L272.516 68.2422L267.101 51.1052L283.009 42.8427Z" fill="#FACC73"/>
<path opacity="0.3" fill-rule="evenodd" clip-rule="evenodd" d="M192.295 103.74L173.001 118.123C173.001 118.123 181.125 128.528 194.326 135.566L202.788 121.489C202.788 121.183 195.68 106.801 192.295 103.74Z" fill="#699136"/>
<path fill-rule="evenodd" clip-rule="evenodd" d="M216.328 184.529L216.666 180.551C216.666 180.551 231.221 171.371 226.821 150.255C222.42 129.14 203.127 112.921 203.127 112.921C203.127 112.921 189.926 130.67 190.264 145.359C190.603 164.638 214.297 179.939 214.297 179.939L214.635 184.835L216.328 184.529Z" fill="#EC4E20"/>
<path fill-rule="evenodd" clip-rule="evenodd" d="M228.513 233.186C228.513 233.186 231.221 218.191 234.944 203.197C238.668 188.202 250.853 163.72 250.853 163.72C250.853 163.72 239.006 185.753 233.252 201.972C227.836 218.497 228.513 233.186 228.513 233.186Z" fill="#FACC73"/>
<path fill-rule="evenodd" clip-rule="evenodd" d="M231.56 74.0566C231.56 74.0566 237.314 54.1653 236.298 37.9463C235.283 21.7273 219.036 0 219.036 0C219.036 0 234.606 22.0334 234.944 38.2524C235.621 54.1653 231.56 74.0566 231.56 74.0566Z" fill="#FACC73"/>
<path opacity="0.3" fill-rule="evenodd" clip-rule="evenodd" d="M213.281 30.6019L234.267 32.132C234.267 32.132 235.96 40.3945 234.944 50.1871H215.312C215.312 50.1871 212.266 39.4764 213.281 30.6019Z" fill="#699136"/>
<path opacity="0.3" fill-rule="evenodd" clip-rule="evenodd" d="M232.237 25.3996H213.62L214.635 19.5852H229.867L232.237 25.3996Z" fill="#699136"/>
<path opacity="0.5" fill-rule="evenodd" clip-rule="evenodd" d="M227.159 151.479L214.297 146.277L207.865 124.55L212.604 123.02C212.604 123.02 225.128 137.708 227.159 151.479Z" fill="#FACC73"/>
<path opacity="0.5" fill-rule="evenodd" clip-rule="evenodd" d="M308.734 165.556L291.81 161.578L276.24 145.359L283.009 142.911C283.009 142.911 300.272 151.785 308.734 165.556Z" fill="#FACC73"/>
<path opacity="0.5" fill-rule="evenodd" clip-rule="evenodd" d="M311.78 171.983L297.903 170.146L300.61 175.043L313.134 175.961L311.78 171.983Z" fill="#FACC73"/>
<path opacity="0.5" fill-rule="evenodd" clip-rule="evenodd" d="M254.238 201.054L237.991 194.016L233.929 207.787L250.853 218.803C251.192 218.803 254.577 211.153 254.238 201.054Z" fill="#FACC73"/>
<path opacity="0.5" fill-rule="evenodd" clip-rule="evenodd" d="M248.484 222.476L232.914 212.071L232.237 214.519L243.407 227.372C243.407 227.372 246.791 224.618 248.484 222.476Z" fill="#FACC73"/>
<path opacity="0.3" fill-rule="evenodd" clip-rule="evenodd" d="M213.62 151.479L195.342 161.272C195.342 161.272 204.819 174.737 214.297 180.551C214.297 180.245 216.666 161.272 213.62 151.479Z" fill="#699136"/>
<path opacity="0.3" fill-rule="evenodd" clip-rule="evenodd" d="M306.365 201.054C306.365 201.054 302.641 179.327 295.195 168.922L272.855 175.655C272.855 175.655 279.286 188.202 286.733 194.016C293.841 199.83 306.026 202.278 306.026 202.278L306.365 201.054Z" fill="#699136"/>
<path fill-rule="evenodd" clip-rule="evenodd" d="M307.38 201.054C307.38 201.054 305.011 184.223 298.918 172.289C292.825 160.048 267.777 137.096 267.777 137.096C267.777 137.096 289.779 158.518 296.887 172.289C304.334 185.753 307.38 201.054 307.38 201.054Z" fill="#FACC73"/>
<path fill-rule="evenodd" clip-rule="evenodd" d="M216.666 180.857C216.666 180.857 217.005 164.026 214.635 148.113C212.266 132.2 203.127 113.227 203.127 113.227C203.127 113.227 211.589 133.118 213.281 148.113C214.974 162.802 216.666 180.857 216.666 180.857Z" fill="#FACC73"/>
<path opacity="0.3" fill-rule="evenodd" clip-rule="evenodd" d="M259.654 395.07C259.654 395.07 243.068 415.88 212.604 412.513C182.141 409.453 167.247 327.44 167.247 327.44L179.433 422H254.577L259.654 395.07Z" fill="url(#paint1_linear_340_16297)"/>
</g>
<path d="M106.853 207.156C106.853 207.156 109.121 211.85 109.121 217.873C109.121 223.896 106.775 228.59 106.775 228.59L32.6971 228.433C32.6971 228.433 31.4456 225.852 31.4456 217.717C31.4456 209.581 32.6971 207 32.6971 207L106.853 207.156Z" fill="#EC4E20"/>
<path d="M47.8721 212.554C50.7661 212.554 53.1126 214.9 53.1126 217.794C53.1126 220.688 50.7661 223.035 47.8721 223.035C44.9781 223.035 42.6316 220.688 42.6316 217.794C42.6316 214.822 44.9781 212.476 47.8721 212.554Z" fill="#D22E1A"/>
<path d="M34.9656 217.717C34.9656 225.852 36.2171 228.433 36.2171 228.433H41.3016C41.3016 228.433 40.0501 225.852 40.0501 217.717C40.0501 209.581 41.3016 207 41.3016 207H36.2171C36.2171 207 34.9656 209.581 34.9656 217.717Z" fill="#D22E1A"/>
<path d="M101.221 217.795C101.221 225.93 99.969 228.511 99.969 228.511H94.8845C94.8845 228.511 96.1361 225.93 96.1361 217.795C96.1361 209.66 94.8845 207.078 94.8845 207.078H99.969C99.969 207.156 101.221 209.66 101.221 217.795Z" fill="#D22E1A"/>
<path d="M105.836 217.873C105.836 226.008 104.584 228.59 104.584 228.59H102.081C102.081 228.59 103.333 226.008 103.333 217.873C103.333 209.738 102.081 207.156 102.081 207.156H104.584C104.584 207.156 105.836 209.738 105.836 217.873Z" fill="#D22E1A"/>
<path d="M113.267 228.511C113.267 228.511 115.927 233.987 115.927 241.105C115.927 248.224 113.189 253.699 113.189 253.699L25.9699 253.543C25.9699 253.543 24.4836 250.492 24.4836 240.949C24.4836 231.406 25.9699 228.355 25.9699 228.355L113.267 228.511Z" fill="#A53616"/>
<path d="M36.6083 228.433C36.6083 228.433 36.2172 229.293 35.7478 231.562C33.4794 232.97 31.8367 236.647 31.8367 241.027C31.8367 245.408 33.4794 249.162 35.7478 250.492C36.1389 252.761 36.5301 253.621 36.5301 253.621H42.475C42.475 253.621 41.8492 252.291 41.3799 248.693C42.6314 246.816 43.4137 244.078 43.4919 241.027C43.4919 237.976 42.7097 235.16 41.4582 233.361C41.9275 229.763 42.5532 228.433 42.5532 228.433H36.6083Z" fill="#EF714C"/>
<path d="M106.696 241.105C106.696 250.649 105.21 253.699 105.21 253.699H99.2649C99.2649 253.699 100.751 250.649 100.751 241.105C100.751 231.562 99.2649 228.511 99.2649 228.511H105.21C105.21 228.511 106.696 231.562 106.696 241.105Z" fill="#EF714C"/>
<path d="M112.094 241.105C112.094 250.649 110.607 253.699 110.607 253.699H107.635C107.635 253.699 109.121 250.649 109.121 241.105C109.121 231.562 107.635 228.511 107.635 228.511H110.607C110.686 228.511 112.172 231.562 112.094 241.105Z" fill="#EF714C"/>
<path d="M123.984 296.487C123.984 296.487 126.252 301.181 126.252 307.204C126.252 313.227 123.905 317.92 123.905 317.92L15.3316 317.764C15.3316 317.764 14.0801 315.183 14.0801 307.047C14.0801 298.912 15.3316 296.331 15.3316 296.331L123.984 296.487Z" fill="#F6A444"/>
<path d="M17.5215 307.047C17.5215 315.183 18.7731 317.764 18.7731 317.764H23.8576C23.8576 317.764 22.606 315.183 22.606 307.047C22.606 298.912 23.8576 296.331 23.8576 296.331H18.7731C18.8514 296.331 17.5215 298.912 17.5215 307.047Z" fill="#FACC73"/>
<path d="M118.352 307.204C118.352 315.339 117.1 317.92 117.1 317.92H112.016C112.016 317.92 113.267 315.339 113.267 307.204C113.267 299.069 112.016 296.487 112.016 296.487H117.1C117.1 296.487 118.352 299.069 118.352 307.204Z" fill="#FACC73"/>
<path d="M122.967 307.204C122.967 315.339 121.715 317.92 121.715 317.92H119.212C119.212 317.92 120.464 315.339 120.464 307.204C120.464 299.069 119.212 296.487 119.212 296.487H121.715C121.715 296.487 122.967 299.069 122.967 307.204Z" fill="#FACC73"/>
<path d="M106.775 253.699C106.775 253.699 109.043 258.393 109.043 264.416C109.043 270.439 106.696 275.132 106.696 275.132L32.619 274.976C32.619 274.976 31.3674 272.395 31.3674 264.259C31.3674 256.124 32.619 253.543 32.619 253.543L106.775 253.699Z" fill="#F6A444"/>
<path d="M40.363 264.338C40.363 272.473 41.6146 275.054 41.6146 275.054H46.6991C46.6991 275.054 45.4475 272.473 45.4475 264.338C45.4475 256.202 46.6991 253.621 46.6991 253.621H41.6146C41.6146 253.621 40.363 256.202 40.363 264.338Z" fill="#F9BA81"/>
<path d="M59.606 264.338C59.606 272.473 60.8575 275.054 60.8575 275.054H84.6374C84.6374 275.054 85.4978 272.473 85.4978 264.338C85.4978 256.202 84.6374 253.621 84.6374 253.621H60.8575C60.8575 253.621 59.606 256.202 59.606 264.338Z" fill="#F9BA81"/>
<path d="M35.7478 264.338C35.7478 272.473 36.9994 275.054 36.9994 275.054H39.5026C39.5026 275.054 38.2509 272.473 38.2509 264.338C38.2509 256.202 39.5026 253.621 39.5026 253.621H36.9994C36.9994 253.621 35.7478 256.202 35.7478 264.338Z" fill="#F9BA81"/>
<path d="M119.056 275.132C119.056 275.132 121.324 279.826 121.324 285.849C121.324 291.872 119.056 296.566 119.056 296.566L20.2596 296.409C20.2596 296.409 19.0081 293.828 19.0081 285.693C19.0081 277.557 20.2596 274.976 20.2596 274.976L119.056 275.132Z" fill="#A53616"/>
<path d="M22.45 285.693C22.45 293.828 23.7015 296.409 23.7015 296.409H28.786C28.786 296.409 27.5345 293.828 27.5345 285.693C27.5345 277.557 28.786 274.976 28.786 274.976H23.7015C23.7797 274.976 22.45 277.557 22.45 285.693Z" fill="#EF714C"/>
<path d="M126.096 317.92C126.096 317.92 129.616 325.039 129.616 334.347C129.616 343.578 126.096 350.696 126.096 350.696L12.6721 350.54C12.6721 350.54 10.7165 346.628 10.7948 334.113C10.7948 321.675 12.7503 317.764 12.7503 317.764L126.096 317.92Z" fill="#EC4E20"/>
<path d="M35.748 326.134C40.1285 326.134 43.7268 329.732 43.7268 334.191C43.7268 338.65 40.1285 342.17 35.748 342.17C31.2893 342.17 27.7693 338.571 27.7693 334.113C27.6911 329.732 31.2893 326.134 35.748 326.134Z" fill="#D22E1A"/>
<path d="M15.9575 334.113C15.9575 346.55 17.8349 350.54 17.8349 350.54H25.579C25.579 350.54 23.6234 346.628 23.7016 334.191C23.7016 321.753 25.6572 317.842 25.6572 317.842H17.9131C17.9131 317.764 15.9575 321.675 15.9575 334.113Z" fill="#D22E1A"/>
<path d="M117.491 334.269C117.491 346.707 115.536 350.618 115.536 350.618H107.792C107.792 350.618 109.747 346.707 109.747 334.269C109.747 321.832 107.87 317.842 107.87 317.842H115.614C115.536 317.921 117.491 321.832 117.491 334.269Z" fill="#D22E1A"/>
<path d="M124.531 334.269C124.531 346.707 122.576 350.618 122.576 350.618H118.743C118.743 350.618 120.698 346.707 120.698 334.191C120.698 321.753 118.821 317.842 118.821 317.842H122.732C122.654 317.921 124.609 321.832 124.531 334.269Z" fill="#D22E1A"/>
<path d="M135.952 350.696C135.952 350.696 140.098 359.066 140.02 370.017C140.02 380.89 135.874 389.338 135.874 389.338L2.2684 389.104C2.2684 389.104 0 384.489 0 369.783C0 355.155 2.3467 350.461 2.3467 350.461L135.952 350.696Z" fill="#A53616"/>
<path d="M18.4606 350.54C18.4606 350.54 17.8348 351.869 17.209 355.311C13.689 357.423 11.1858 363.134 11.1858 369.861C11.1858 376.588 13.6889 382.298 17.1307 384.41C17.7565 387.852 18.3824 389.182 18.3824 389.182H27.5345C27.5345 389.182 26.5176 387.148 25.8918 381.672C27.8474 378.856 29.0989 374.632 29.0989 369.939C29.0989 365.246 27.8474 361.021 25.97 358.205C26.674 352.652 27.6127 350.696 27.6127 350.696L18.4606 350.54Z" fill="#EF714C"/>
<path d="M125.861 370.017C125.861 384.645 123.514 389.338 123.514 389.338H114.362C114.362 389.338 116.631 384.723 116.709 370.017C116.709 355.389 114.441 350.696 114.441 350.696H123.593C123.593 350.696 125.861 355.311 125.861 370.017Z" fill="#EF714C"/>
<path d="M134.153 370.017C134.153 384.645 131.806 389.338 131.806 389.338H127.269C127.269 389.338 129.538 384.723 129.616 370.017C129.616 355.389 127.347 350.696 127.347 350.696H131.884C131.962 350.696 134.231 355.311 134.153 370.017Z" fill="#EF714C"/>
<path d="M125.939 389.26C125.939 389.26 129.459 396.378 129.459 405.687C129.459 414.917 125.939 422.036 125.939 422.036L12.5156 421.879C12.5156 421.879 10.56 417.968 10.6383 405.452C10.6383 393.015 12.5939 389.104 12.5939 389.104L125.939 389.26Z" fill="#F6A444"/>
<path d="M24.249 405.53C24.249 417.968 26.1263 421.879 26.1263 421.879H33.8704C33.8704 421.879 31.9148 417.968 31.993 405.53C31.993 393.093 33.9486 389.182 33.9486 389.182H26.2046C26.2046 389.104 24.249 393.093 24.249 405.53Z" fill="#F9BA81"/>
<path d="M53.7393 405.53C53.7393 417.968 55.6948 421.879 55.6948 421.879L92.0686 421.957C92.0686 421.957 93.3985 418.046 93.4767 405.609C93.4767 393.171 92.1468 389.26 92.1468 389.26L55.773 389.182C55.6948 389.182 53.7393 393.093 53.7393 405.53Z" fill="#F9BA81"/>
<path d="M17.1309 405.53C17.1309 417.968 19.0082 421.879 19.0082 421.879H22.9194C22.9194 421.879 20.9638 417.968 21.042 405.53C21.042 393.093 22.9976 389.104 22.9976 389.104H19.1647C19.0865 389.104 17.1309 393.015 17.1309 405.53Z" fill="#F9BA81"/>
<defs>
<linearGradient id="paint0_linear_340_16297" x1="173.651" y1="418.617" x2="244.922" y2="297.226" gradientUnits="userSpaceOnUse">
<stop offset="0.109375" stop-color="#EC4E20" stop-opacity="0.28"/>
<stop offset="1" stop-color="#F9C050" stop-opacity="0.08"/>
</linearGradient>
<linearGradient id="paint1_linear_340_16297" x1="213.489" y1="422.135" x2="213.489" y2="327.541" gradientUnits="userSpaceOnUse">
<stop stop-color="#EC4E20" stop-opacity="0.36"/>
<stop offset="1" stop-color="white"/>
</linearGradient>
<clipPath id="clip0_340_16297">
<rect width="219" height="422" fill="white" transform="translate(151)"/>
</clipPath>
</defs>
</svg>
