<svg width="444" height="417" viewBox="0 0 444 417" fill="none" xmlns="http://www.w3.org/2000/svg">
<path d="M345.597 323.888C338.955 330.882 332.664 335.392 327.698 338.965C269.302 380.867 200.212 368.649 185.522 365.661C163.839 361.257 121.925 352.741 91.6205 317.106C45.7709 263.185 52.9166 178.245 88.4694 122.18C94.9708 111.918 129.34 54.9986 199.169 45.8731C241.434 40.344 290.704 51.496 326.386 81.3791C401.287 144.121 395.945 270.881 345.597 323.888Z" fill="#F9C050" fill-opacity="0.16"/>
<path d="M384.488 167.936C384.477 166.026 381.911 165.405 381.033 167.104C372.54 183.445 348.947 225.582 322.11 244.957C278.428 276.504 241.563 334.841 257.494 372.373C257.506 372.362 385.859 375.407 384.488 167.936Z" fill="#F9C050" fill-opacity="0.36"/>
<path opacity="0.43" d="M375.902 191.985C375.738 192.547 375.562 192.993 375.386 193.485L374.847 194.914L373.746 197.76C372.997 199.658 372.223 201.532 371.45 203.418C369.892 207.179 368.276 210.915 366.636 214.641C363.332 222.079 359.83 229.436 356.222 236.734C352.626 244.043 348.818 251.248 344.859 258.358C340.9 265.481 336.835 272.544 332.536 279.467C323.973 293.337 314.648 306.75 304.41 319.448C299.232 325.739 293.879 331.912 288.174 337.746C282.434 343.545 276.448 349.097 270.087 354.193C269.946 354.298 269.747 354.287 269.63 354.146C269.525 354.005 269.536 353.818 269.665 353.701C275.804 348.383 281.649 342.748 287.201 336.832C292.777 330.928 297.99 324.72 303.051 318.371C308.1 312.021 312.891 305.473 317.541 298.819C322.18 292.166 326.55 285.313 330.872 278.448C339.459 264.672 347.319 250.439 354.769 236.007C358.483 228.78 362.044 221.482 365.488 214.113C367.21 210.435 368.897 206.745 370.548 203.02L372.973 197.432L374.156 194.621L374.73 193.215C374.906 192.747 375.117 192.255 375.257 191.845L375.281 191.774C375.339 191.61 375.515 191.517 375.679 191.575C375.855 191.645 375.949 191.821 375.902 191.985Z" fill="white"/>
<path d="M332.829 87.3413C332.301 85.5959 329.783 85.7248 329.431 87.5171C326.105 104.819 315.96 149.896 296.643 174.988C265.19 215.835 247.303 279.397 272.149 309.456C272.149 309.456 390.685 277.23 332.829 87.3413Z" fill="#FACC73"/>
<path opacity="0.43" d="M331.517 111.742C331.517 112.305 331.481 112.761 331.458 113.253L331.364 114.718L331.13 117.635C330.966 119.579 330.767 121.512 330.568 123.457C330.158 127.334 329.701 131.2 329.221 135.065C328.225 142.797 327.018 150.493 325.706 158.166C324.394 165.851 322.871 173.488 321.185 181.103C319.498 188.705 317.694 196.296 315.644 203.817C311.579 218.869 306.682 233.711 300.755 248.155C297.721 255.348 294.488 262.458 290.856 269.358C287.178 276.234 283.195 282.97 278.756 289.378C278.662 289.518 278.463 289.553 278.322 289.46C278.182 289.366 278.146 289.179 278.24 289.038C282.422 282.49 286.229 275.719 289.708 268.784C293.211 261.861 296.304 254.727 299.197 247.534C302.09 240.33 304.703 233.02 307.151 225.652C309.587 218.284 311.719 210.81 313.816 203.336C317.94 188.354 321.255 173.16 324.16 157.897C325.589 150.259 326.878 142.586 328.014 134.901C328.588 131.059 329.139 127.205 329.631 123.351L330.333 117.564L330.65 114.671L330.79 113.218C330.825 112.738 330.884 112.234 330.896 111.813V111.742C330.907 111.567 331.048 111.438 331.224 111.449C331.388 111.438 331.517 111.578 331.517 111.742Z" fill="white"/>
<path d="M123.46 104.058C122.347 149.123 118.716 304.583 120.449 359.663C120.637 365.497 125.311 370.183 131.144 370.37C160.008 371.319 243.039 373.709 290.259 371.729C300.087 371.319 307.912 363.353 308.111 353.513C309.095 306.211 311.263 173.16 306.108 112.211C305.487 104.913 299.759 99.0908 292.473 98.3646C261.044 95.2251 177.544 87.5406 136.767 90.188C129.411 90.6683 123.636 96.6894 123.46 104.058Z" fill="#007673"/>
<path d="M135.186 118.068C133.604 154.98 128.637 277.769 130.219 323.174C130.453 329.816 135.678 335.181 142.308 335.567C169.602 337.16 239.606 340.686 279.646 337.477C286.85 336.903 292.508 331.069 292.906 323.853C294.933 286.192 300.755 171.86 299.244 126.971C298.998 119.814 293.457 113.956 286.311 113.324C256.78 110.676 180.942 104.362 146.923 106.225C140.539 106.553 135.455 111.672 135.186 118.068Z" fill="#33BAB7"/>
<path opacity="0.5" d="M194.788 98.0598C194.788 99.4421 195.866 100.578 197.248 100.66C204.066 101.012 223.265 102.031 231.852 102.523C233.539 102.617 234.874 101.105 234.546 99.4304L234.487 99.1492C234.265 98.0129 233.328 97.1578 232.18 97.0524C226.381 96.5252 208.868 95.0492 197.271 95.4592C195.889 95.5178 194.788 96.6658 194.788 98.0598Z" fill="white"/>
<path d="M271.153 251.154L155.1 248.928C151.316 248.858 148.47 253.263 148.786 258.721C149.091 264.122 153.038 265.75 156.752 265.691L270.274 266.605C272.606 266.57 274.679 263.149 274.925 258.944C275.194 254.703 273.508 251.201 271.153 251.154Z" fill="white"/>
<path d="M271.469 286.754L155.416 284.528C151.633 284.458 148.786 288.862 149.102 294.321C149.407 299.722 153.355 301.35 157.068 301.291L270.591 302.205C272.922 302.17 274.995 298.749 275.241 294.544C275.511 290.292 273.824 286.801 271.469 286.754Z" fill="white"/>
<path d="M221.649 256.027L158.673 255.371C156.623 255.348 155.077 256.531 155.252 257.995C155.428 259.448 157.56 259.881 159.575 259.869L221.18 260.174C222.445 260.162 223.57 259.249 223.699 258.124C223.839 256.976 222.925 256.039 221.649 256.027Z" fill="#EC4E20"/>
<path d="M214.702 227.784C243.039 227.784 266.01 204.813 266.01 176.476C266.01 148.139 243.039 125.167 214.702 125.167C186.365 125.167 163.394 148.139 163.394 176.476C163.394 204.813 186.365 227.784 214.702 227.784Z" fill="white"/>
<path d="M231.348 158.002C231.348 166.753 224.249 176.206 215.499 176.206C206.748 176.206 199.649 166.753 199.649 158.002C199.649 149.252 206.748 143.031 215.499 143.031C224.249 143.031 231.348 149.24 231.348 158.002Z" fill="#EC4E20"/>
<path d="M195.819 209.908H234.511C238.587 209.908 242.195 207.272 243.437 203.395L245.522 196.882C247.045 192.114 244.573 186.96 239.864 185.238C224.12 179.474 207.826 180.224 191.145 185.765C186.471 187.323 183.882 192.313 185.17 197.069L186.775 202.985C187.888 207.073 191.59 209.908 195.819 209.908Z" fill="#EC4E20"/>
<path d="M166.545 292.775C166.474 295.059 164.565 296.887 162.292 296.863C160.02 296.84 158.228 294.966 158.298 292.681C158.368 290.397 160.278 288.57 162.55 288.593C164.834 288.628 166.615 290.502 166.545 292.775Z" fill="#EC4E20"/>
<path d="M181.961 292.962C181.89 295.235 180.004 297.051 177.744 297.027C175.483 297.004 173.714 295.141 173.784 292.869C173.854 290.596 175.752 288.769 178.013 288.804C180.262 288.827 182.031 290.69 181.961 292.962Z" fill="#EC4E20"/>
<path d="M198.49 293.232C198.419 295.516 196.51 297.343 194.237 297.32C191.965 297.297 190.172 295.422 190.243 293.138C190.313 290.854 192.222 289.026 194.495 289.05C196.779 289.085 198.56 290.947 198.49 293.232Z" fill="#EC4E20"/>
<path d="M231.184 293.618C231.114 295.891 229.228 297.707 226.967 297.683C224.706 297.66 222.937 295.797 223.007 293.525C223.078 291.252 224.975 289.425 227.236 289.46C229.485 289.483 231.254 291.346 231.184 293.618Z" fill="#EC4E20"/>
<path d="M247.713 293.888C247.643 296.172 245.733 298 243.461 297.976C241.188 297.953 239.396 296.078 239.466 293.794C239.536 291.51 241.446 289.682 243.718 289.706C246.003 289.741 247.783 291.615 247.713 293.888Z" fill="#EC4E20"/>
<path d="M213.905 293.408C213.835 295.68 211.949 297.496 209.688 297.472C207.428 297.449 205.659 295.586 205.729 293.314C205.799 291.041 207.697 289.214 209.958 289.249C212.219 289.272 213.987 291.147 213.905 293.408Z" fill="#EC4E20"/>
<path d="M69.7967 178.795C69.6445 178.807 69.4922 178.725 69.4219 178.573C69.1759 178.104 68.9416 177.612 68.719 177.132C68.6253 176.933 68.719 176.698 68.9182 176.605C69.4102 176.382 69.4922 176.933 70.1482 178.221C70.2536 178.42 70.1716 178.655 69.9725 178.748C69.9022 178.783 69.8436 178.795 69.7967 178.795Z" fill="#A8ADAD"/>
<path d="M66.9034 172.469C66.5988 171.497 66.3294 170.49 66.1068 169.494C66.06 169.283 66.2005 169.072 66.4114 169.025C67.0088 168.896 66.7745 169.365 67.6765 172.235C67.7468 172.446 67.6179 172.668 67.4071 172.727C67.1962 172.797 66.9737 172.668 66.9034 172.469ZM65.322 164.562C65.2282 163.543 65.1697 162.5 65.1462 161.493C65.1345 160.954 65.9545 160.966 65.9545 161.481C65.9662 162.477 66.0248 163.484 66.1185 164.492C66.142 164.714 65.978 164.902 65.7554 164.925C65.5328 164.949 65.3337 164.785 65.322 164.562ZM65.3922 156.514C65.5094 155.495 65.6617 154.476 65.8608 153.48C65.9662 152.965 66.7628 153.117 66.6574 153.633C66.47 154.617 66.306 155.612 66.2005 156.608C66.1302 157.124 65.3337 157.042 65.3922 156.514ZM67.3954 149.146C67.1845 149.076 67.0674 148.853 67.1377 148.642C67.4657 147.67 67.8288 146.698 68.2388 145.761C68.4497 145.28 69.1994 145.585 68.9885 146.065C68.5902 146.991 68.2271 147.94 67.9108 148.888C67.8405 149.099 67.6179 149.216 67.3954 149.146ZM70.6519 141.825C70.4528 141.719 70.3942 141.473 70.4997 141.286C71.0268 140.396 71.5891 139.529 72.1748 138.685C72.4794 138.252 73.1471 138.697 72.8425 139.13C72.2685 139.95 71.7179 140.817 71.2025 141.684C71.0971 141.872 70.8511 141.942 70.6519 141.825ZM75.6422 135.405C75.5368 135.405 75.4431 135.382 75.3611 135.312C75.1971 135.171 75.1736 134.913 75.3259 134.749C76.0171 133.988 76.7551 133.238 77.5048 132.535C77.6688 132.383 77.9265 132.383 78.0788 132.547C78.2311 132.699 78.2311 132.957 78.0671 133.109C77.3291 133.8 76.6145 134.538 75.9351 135.288C75.8531 135.358 75.7476 135.405 75.6422 135.405ZM81.6516 130.017C81.5228 130.017 81.3939 129.97 81.3119 129.853C81.183 129.677 81.2182 129.431 81.3939 129.302C82.2256 128.693 83.1042 128.107 83.9827 127.557C84.1702 127.44 84.4279 127.498 84.545 127.686C84.6622 127.873 84.6036 128.119 84.4162 128.236C83.5493 128.775 82.6942 129.349 81.8742 129.946C81.8039 129.982 81.7336 130.005 81.6516 130.017ZM88.2702 125.694C88.1765 125.495 88.2702 125.261 88.4693 125.167C89.4182 124.734 90.3904 124.335 91.3744 123.984C91.8782 123.796 92.1593 124.546 91.6556 124.722C90.695 125.073 89.7344 125.46 88.809 125.882C88.6099 125.975 88.3639 125.893 88.2702 125.694ZM115.506 123.55C112.554 122.789 112.062 123.035 112.179 122.438C112.214 122.227 112.425 122.074 112.648 122.121C113.678 122.297 114.709 122.531 115.717 122.789C116.232 122.918 116.021 123.679 115.506 123.55ZM95.9547 123.012C95.9079 122.801 96.0367 122.59 96.2593 122.531C97.2784 122.297 98.3093 122.098 99.3401 121.946C99.8673 121.864 99.9961 122.648 99.4573 122.73C98.4498 122.883 97.4307 123.07 96.435 123.304C96.2241 123.363 96.0016 123.222 95.9547 123.012ZM107.528 122.332C104.483 122.18 104.049 122.52 104.038 121.91C104.026 121.524 104.471 121.477 104.436 121.5C105.478 121.477 106.544 121.489 107.575 121.536C107.798 121.547 107.974 121.735 107.962 121.957C107.95 122.168 107.763 122.344 107.528 122.332Z" fill="#A8ADAD"/>
<path d="M121.738 125.717C120.496 125.167 119.828 125.085 120.039 124.581C120.121 124.382 120.356 124.277 120.566 124.359C121.878 124.874 122.488 125.05 122.277 125.518C122.218 125.659 121.949 125.811 121.738 125.717Z" fill="#A8ADAD"/>
<path d="M142.999 148.186C142.823 148.198 142.659 148.092 142.601 147.916C142.425 147.424 142.238 146.932 142.039 146.452C141.957 146.253 142.062 146.019 142.261 145.937C142.472 145.855 142.706 145.948 142.788 146.159C142.987 146.651 143.187 147.155 143.362 147.659C143.433 147.87 143.327 148.092 143.116 148.162C143.081 148.186 143.046 148.186 142.999 148.186Z" fill="white"/>
<path d="M105.783 200.209C104.658 200.221 103.522 200.186 102.398 200.115C102.175 200.104 102.011 199.905 102.023 199.694C102.07 199.073 102.48 199.459 105.771 199.424C105.994 199.424 106.181 199.6 106.181 199.811C106.193 200.186 105.736 200.233 105.783 200.209ZM110.797 199.448C110.703 198.839 111.207 199.12 114.393 198.393C114.616 198.347 114.826 198.475 114.885 198.686C114.932 198.897 114.803 199.108 114.58 199.167C113.491 199.413 112.366 199.623 111.254 199.787C111.043 199.811 110.832 199.659 110.797 199.448ZM96.9622 199.354C95.861 199.131 94.7599 198.85 93.6822 198.534C93.4713 198.475 93.3425 198.253 93.4127 198.042C93.6002 197.456 93.9165 197.913 97.1262 198.581C97.3487 198.628 97.4893 198.839 97.4424 199.049C97.3956 199.26 97.1847 199.401 96.9622 199.354ZM119.711 197.597C119.547 197.609 119.383 197.503 119.313 197.339C119.231 197.14 119.336 196.906 119.547 196.824C120.578 196.437 121.597 196.004 122.593 195.535C122.792 195.441 123.038 195.523 123.132 195.723C123.225 195.922 123.143 196.156 122.944 196.25C121.937 196.73 120.894 197.175 119.84 197.573C119.793 197.597 119.746 197.597 119.711 197.597ZM127.501 193.649C127.361 193.649 127.232 193.591 127.15 193.473C127.021 193.286 127.079 193.04 127.267 192.923C128.181 192.325 129.083 191.681 129.949 191.013C130.125 190.873 130.383 190.908 130.523 191.072C130.664 191.248 130.629 191.494 130.453 191.634C129.575 192.325 128.649 192.981 127.724 193.591C127.642 193.626 127.571 193.649 127.501 193.649ZM134.225 188.132C134.12 188.132 134.014 188.097 133.932 188.026C133.768 187.874 133.768 187.628 133.921 187.464C134.682 186.691 135.42 185.859 136.111 185.027C136.252 184.852 136.509 184.828 136.685 184.969C136.861 185.109 136.884 185.355 136.744 185.531C136.041 186.386 135.291 187.218 134.506 188.015C134.424 188.085 134.319 188.12 134.225 188.132ZM139.555 181.302C139.473 181.302 139.403 181.291 139.333 181.244C139.145 181.127 139.075 180.892 139.192 180.705C139.766 179.779 140.293 178.831 140.785 177.858C140.879 177.659 141.125 177.577 141.324 177.683C141.523 177.776 141.605 178.022 141.511 178.21C141.008 179.194 140.469 180.166 139.883 181.115C139.813 181.232 139.684 181.302 139.555 181.302ZM143.093 173.489C142.495 173.29 142.976 172.997 143.749 169.869C143.878 169.354 144.663 169.541 144.534 170.057C144.264 171.123 143.96 172.189 143.597 173.231C143.538 173.454 143.304 173.559 143.093 173.489ZM145.026 165.113C144.393 165.055 144.803 164.668 144.85 161.447C144.862 160.919 145.67 160.931 145.658 161.458C145.635 162.559 145.576 163.672 145.459 164.762C145.447 164.984 145.248 165.137 145.026 165.113ZM144.991 156.538C144.78 156.55 144.592 156.398 144.569 156.187C144.44 155.109 144.264 154.043 144.042 152.989C143.995 152.778 144.135 152.567 144.358 152.52C144.581 152.473 144.791 152.614 144.838 152.825C145.061 153.891 145.248 154.992 145.377 156.093C145.401 156.316 145.248 156.503 145.026 156.538C145.014 156.538 145.002 156.538 144.991 156.538Z" fill="white"/>
<path d="M88.5279 196.613C87.2393 196.039 86.6419 195.84 86.8762 195.383C87.1222 194.903 87.5556 195.301 88.8676 195.898C89.0668 195.992 89.1605 196.226 89.0668 196.425C88.973 196.625 88.727 196.707 88.5279 196.613Z" fill="white"/>
<path d="M88.6801 185.636L93.6938 182.743C96.1069 183.961 98.7426 184.805 101.507 185.215C103.873 190.228 103.686 190.756 104.307 190.697L111.265 190.146C111.464 190.135 111.64 189.994 111.687 189.795L113.139 184.289C115.81 183.458 118.27 182.204 120.461 180.623L125.885 182.696C126.072 182.766 126.295 182.72 126.423 182.567L130.957 177.366C131.086 177.214 131.109 176.991 131.004 176.827L128.052 171.931C129.293 169.564 130.172 166.987 130.594 164.293L135.924 162.009C136.111 161.927 136.228 161.739 136.205 161.54L135.654 154.734C135.643 154.535 135.49 154.371 135.303 154.324L129.668 152.907C128.813 150.306 127.548 147.893 125.931 145.761C127.899 140.536 128.403 140.326 127.923 139.939C122.64 135.698 122.605 135.148 122.054 135.476L117.04 138.369C114.627 137.151 111.991 136.308 109.227 135.898C106.861 130.884 107.048 130.357 106.427 130.404C99.5158 131.071 99.1995 130.708 99.0355 131.306L97.5829 136.811C94.9121 137.643 92.4521 138.896 90.2615 140.478C84.9901 138.58 84.709 138.065 84.299 138.533C79.9061 143.758 79.4024 143.746 79.7187 144.273L82.6707 149.17C81.429 151.536 80.5504 154.113 80.1287 156.808C75.0799 159.092 74.459 158.928 74.5059 159.56C75.1736 166.284 74.7987 166.624 75.4079 166.776L81.0424 168.194C81.8976 170.794 83.1627 173.208 84.7793 175.34C82.8113 180.541 82.3075 180.775 82.7878 181.162C88.1061 185.414 88.1295 185.953 88.6801 185.636Z" fill="#A53616"/>
<path d="M98.93 162.688C97.7234 159.209 99.6446 155.425 103.194 154.242C106.755 153.059 110.621 154.922 111.827 158.401C113.034 161.88 111.113 165.664 107.563 166.847C104.002 168.03 100.125 166.167 98.93 162.688ZM103.581 155.367C100.699 156.327 99.0706 159.408 100.078 162.302C101.062 165.16 104.248 166.683 107.165 165.71C110.082 164.738 111.663 161.622 110.668 158.776C109.684 155.929 106.497 154.406 103.581 155.367Z" fill="white"/>
<path d="M106.123 177.483C105.115 177.519 104.108 177.483 103.124 177.355C102.831 177.319 102.608 177.073 102.597 176.792C102.597 176.757 102.597 176.722 102.597 176.687C102.643 176.359 102.948 176.136 103.276 176.171C104.412 176.324 105.584 176.347 106.732 176.253C115.435 175.562 122.019 168.253 121.679 159.795C121.667 159.584 121.656 159.361 121.644 159.151C120.929 150.377 113.081 143.899 104.166 144.601C95.2635 145.304 88.5512 152.954 89.2541 161.704C89.6758 166.917 92.2998 169.424 92.3232 169.975C92.3466 170.56 91.5735 170.818 91.2221 170.349C89.3126 167.737 88.1412 164.539 88.0006 161.107C87.4149 146.3 105.256 137.831 116.783 147.425C120.332 150.377 122.487 154.512 122.851 159.045C122.874 159.279 122.886 159.514 122.897 159.748C123.061 164.047 121.597 168.182 118.727 171.474C115.705 174.941 111.476 177.062 106.825 177.425C106.603 177.46 106.369 177.472 106.123 177.483Z" fill="white"/>
<path d="M139.532 132.078C140.926 132.664 142.425 133.027 143.971 133.133L145.494 135.979C145.658 136.295 145.869 136.038 149.606 135.499C149.946 135.44 149.782 135.183 150.379 132.102C151.82 131.516 153.12 130.696 154.268 129.7L157.361 130.637C157.701 130.743 157.665 130.403 159.926 127.393C159.997 127.299 159.997 127.182 159.926 127.088L158.064 124.441C158.649 123.047 159.013 121.547 159.118 120.001C161.812 118.49 162.164 118.548 162.105 118.197C161.426 114.413 161.613 114.202 161.273 114.144L158.087 113.581C157.501 112.141 156.681 110.829 155.686 109.692L156.623 106.6C156.728 106.26 156.389 106.295 153.378 104.034C153.097 103.835 153.05 104.128 150.426 105.897C149.032 105.311 147.533 104.948 145.986 104.843L144.463 101.996C144.299 101.68 144.089 101.937 140.352 102.476C140.012 102.535 140.188 102.769 139.579 105.873C138.138 106.459 136.826 107.279 135.689 108.275L132.597 107.338C132.491 107.303 132.374 107.349 132.304 107.431L130.043 110.571C129.973 110.665 129.973 110.782 130.043 110.875L131.906 113.523C131.32 114.917 130.957 116.416 130.851 117.963C128.157 119.474 127.806 119.415 127.864 119.767C128.544 123.55 128.356 123.761 128.696 123.82L131.882 124.382C132.468 125.823 133.288 127.135 134.284 128.271C133.452 131.247 133.159 131.457 133.44 131.657L136.591 133.929C136.861 134.14 136.919 133.835 139.532 132.078Z" fill="#A53616"/>
<path d="M141.277 120.598C140.387 118.537 141.336 116.159 143.397 115.28C145.447 114.39 147.837 115.339 148.716 117.4C149.594 119.45 148.645 121.84 146.595 122.719C144.545 123.597 142.156 122.648 141.277 120.598ZM142.378 120.118C142.999 121.559 144.674 122.227 146.115 121.606C148.423 120.61 148.388 117.283 146.045 116.358C143.714 115.421 141.383 117.787 142.378 120.118Z" fill="white"/>
<path d="M129.633 133.624C129.258 133.226 128.895 132.816 128.544 132.394C128.403 132.219 128.427 131.973 128.602 131.832C129.036 131.481 129.247 132.055 130.207 133.074C130.359 133.238 130.359 133.484 130.195 133.648C130.031 133.788 129.785 133.777 129.633 133.624Z" fill="white"/>
<path d="M125.709 127.814C125.264 126.842 124.877 125.799 124.573 124.698C124.432 124.183 125.205 123.972 125.346 124.476C126.142 127.311 126.857 127.721 126.248 128.002C126.037 128.107 125.803 128.013 125.709 127.814ZM124.186 119.778C123.963 119.778 123.776 119.603 123.776 119.38C123.753 118.279 123.823 117.166 123.975 116.065C124.045 115.538 124.842 115.643 124.772 116.182C124.619 117.236 124.561 118.302 124.584 119.368C124.596 119.755 124.151 119.802 124.186 119.778ZM125.779 111.438C125.721 111.438 125.662 111.426 125.615 111.403C125.404 111.321 125.311 111.086 125.393 110.875C125.814 109.856 126.318 108.861 126.892 107.923C127.009 107.736 127.255 107.677 127.443 107.795C127.63 107.912 127.689 108.158 127.571 108.345C127.021 109.247 126.529 110.208 126.131 111.192C126.072 111.344 125.931 111.438 125.779 111.438ZM130.547 104.421C130.441 104.421 130.324 104.386 130.242 104.304C130.09 104.14 130.09 103.894 130.254 103.73C131.051 102.968 131.906 102.254 132.808 101.621C132.995 101.492 133.241 101.539 133.37 101.715C133.499 101.902 133.452 102.148 133.276 102.277C132.409 102.886 131.578 103.566 130.816 104.304C130.734 104.374 130.641 104.421 130.547 104.421ZM137.329 99.6298C137.247 99.4189 137.353 99.1846 137.564 99.1144C138.595 98.7278 139.672 98.4115 140.75 98.2006C141.265 98.0952 141.429 98.8801 140.914 98.9855C139.883 99.1964 138.841 99.5009 137.845 99.8641C137.634 99.9461 137.411 99.8406 137.329 99.6298Z" fill="white"/>
<path d="M147.661 98.7513C146.197 98.5521 145.682 98.7278 145.705 98.1773C145.717 97.9547 145.904 97.779 146.127 97.8024C146.666 97.8375 147.216 97.8844 147.755 97.9547C147.978 97.9781 148.13 98.189 148.107 98.4115C148.095 98.6224 147.896 98.7747 147.661 98.7513Z" fill="white"/>
<path d="M161.859 107.479C161.027 106.249 160.559 105.979 160.98 105.639C161.156 105.499 161.402 105.534 161.543 105.698C161.882 106.12 162.21 106.565 162.515 107.022C162.644 107.209 162.597 107.455 162.41 107.584C162.234 107.713 161.976 107.666 161.859 107.479Z" fill="#F9C050" fill-opacity="0.12"/>
<path d="M147.72 139.634C147.615 138.978 148.341 139.342 151.117 138.463C151.621 138.299 151.867 139.072 151.363 139.236C150.321 139.564 149.255 139.81 148.189 139.974C147.966 139.998 147.755 139.857 147.72 139.634ZM155.615 136.893C155.498 136.706 155.557 136.46 155.744 136.343C158.239 134.808 158.403 134.023 158.848 134.539C158.989 134.703 158.977 134.96 158.802 135.101C157.982 135.804 157.091 136.448 156.166 137.022C155.978 137.139 155.732 137.081 155.615 136.893ZM161.789 131.282C161.238 130.896 162 130.638 163.288 128.026C163.522 127.545 164.249 127.908 164.014 128.377C163.534 129.349 162.972 130.298 162.351 131.177C162.222 131.364 161.976 131.411 161.789 131.282ZM165.268 123.691C164.612 123.551 165.209 123.012 165.373 120.107C165.408 119.58 166.205 119.615 166.182 120.154C166.123 121.231 165.971 122.321 165.748 123.387C165.701 123.609 165.49 123.738 165.268 123.691ZM165.022 115.034C164.448 112.164 163.78 111.731 164.413 111.497C164.624 111.415 164.858 111.532 164.928 111.731C165.303 112.75 165.596 113.804 165.807 114.87C165.854 115.093 165.713 115.304 165.49 115.339C165.28 115.398 165.069 115.257 165.022 115.034Z" fill="#F9C050" fill-opacity="0.12"/>
<path d="M142.87 140.103C142.331 140.044 141.781 139.974 141.242 139.869C141.019 139.833 140.879 139.623 140.914 139.4C141.008 138.849 141.547 139.154 142.941 139.295C143.163 139.318 143.327 139.517 143.304 139.74C143.292 139.962 143.081 140.126 142.87 140.103Z" fill="#F9C050" fill-opacity="0.12"/>
<path d="M144.522 128.88C144.135 128.857 143.913 128.564 143.924 128.248C143.948 127.92 144.229 127.662 144.557 127.674C145.178 127.709 145.799 127.674 146.42 127.568C146.548 127.522 149.828 127.217 152.136 124.054C156.693 117.752 151.328 109.025 143.643 110.266C139.227 110.981 136.099 114.894 136.275 119.263C136.451 123.656 139.25 124.57 138.243 125.413C137.985 125.624 137.611 125.6 137.388 125.343C136.228 123.972 135.467 122.297 135.186 120.516C134.319 115.093 138.009 109.962 143.456 109.095C149.301 108.158 154.76 112.527 155.006 118.572C155.194 123.445 151.75 127.967 146.619 128.787C145.928 128.88 145.213 128.916 144.522 128.88Z" fill="white"/>
</svg>
