<svg width="444" height="417" viewBox="0 0 444 417" fill="none" xmlns="http://www.w3.org/2000/svg">
<path opacity="0.7" d="M227.162 92.1214C227.162 92.1214 253.675 111.839 299.304 90.4367C344.999 68.9723 406.208 71.5306 423.556 124.692C440.904 177.854 444.112 261.153 360.514 263.524C284.967 265.708 260.484 277.376 232.137 296.22C203.791 315.063 99.6369 322.239 47.3306 260.092C5.49869 210.362 -4.38648 157.762 36.9872 104.476C88.4424 38.0237 162.287 45.8233 227.162 92.1214Z" fill="#F9C050" fill-opacity="0.36"/>
<path d="M304.956 147.171C304.956 150.162 302.564 152.556 299.575 152.556H87.4023C84.4129 152.556 82.0214 150.162 82.0214 147.171V125.631C82.0214 122.639 84.4129 120.246 87.4023 120.246H299.575C302.564 120.246 304.956 122.639 304.956 125.631V147.171Z" fill="white"/>
<path d="M299.575 120.246H264.973V152.556H299.575C302.564 152.556 304.956 150.162 304.956 147.171V125.631C304.956 122.639 302.564 120.246 299.575 120.246Z" fill="#505A5B"/>
<path d="M279.172 123.686C272.969 125.706 269.606 132.287 271.549 138.495C273.567 144.703 280.144 148.068 286.347 146.124C292.55 144.104 295.913 137.523 293.97 131.315C292.027 125.107 285.375 121.667 279.172 123.686ZM292.176 131.913C293.82 137.074 290.98 142.608 285.824 144.254C280.667 145.899 275.137 143.057 273.492 137.897C271.848 132.736 274.688 127.201 279.845 125.556C285.002 123.911 290.532 126.753 292.176 131.913Z" fill="white"/>
<path d="M298.977 146.572C299.425 146.946 299.5 147.694 299.126 148.143C298.753 148.592 298.005 148.666 297.557 148.292L291.13 143.057C290.681 142.683 290.607 141.935 290.98 141.486C291.354 141.038 292.101 140.963 292.55 141.337L298.977 146.572Z" fill="white"/>
<path d="M222.598 163.102L217.591 142.609L236.872 151.509L232.463 155.548L237.171 161.307L232.463 165.121L227.904 159.212L222.598 163.102Z" fill="#7C8484"/>
<path d="M222.598 163.102L217.591 142.609L234.854 163.176L232.463 165.121L227.904 159.212L222.598 163.102Z" fill="#505A5B"/>
<path d="M164.155 277.308C164.155 277.308 154.589 255.544 166.397 228.694C166.397 228.694 167.145 236.771 165.874 262.574C165.874 262.574 164.977 251.281 176.785 232.134C176.785 232.134 174.693 250.533 167.444 271.624C167.444 271.624 171.629 254.721 179.326 248.962C179.326 249.037 178.504 266.912 164.155 277.308Z" fill="#33BAB7"/>
<path d="M140.24 212.09C144.874 211.417 150.852 210.445 154.963 213.362C157.28 215.007 158.401 217.774 158.849 220.467C159.372 223.608 158.55 226.675 158.251 229.816C157.952 233.032 158.475 236.248 160.194 239.015C161.614 241.184 163.557 242.68 165.874 243.652C168.191 244.625 170.732 245.223 172.974 246.494C175.515 247.99 177.383 250.309 178.504 253.001C180.821 258.835 179.775 265.566 178.579 271.55C178.504 272.073 179.252 272.298 179.401 271.774C180.447 266.314 181.344 260.406 179.999 254.871C179.326 252.179 178.056 249.71 176.038 247.766C174.095 245.821 171.629 244.774 169.088 243.951C166.547 243.054 164.006 242.157 162.137 240.137C159.596 237.37 158.774 233.78 159.073 230.115C159.372 226.899 160.194 223.758 159.671 220.542C159.297 217.849 158.176 215.082 156.159 213.287C151.899 209.473 145.172 210.52 140.016 211.268C139.493 211.342 139.717 212.165 140.24 212.09Z" fill="#007673"/>
<path d="M141.436 211.417C141.436 211.417 142.034 220.317 130.45 216.802C130.45 216.802 134.261 207.603 141.436 211.417Z" fill="#007673"/>
<path d="M167.294 244.101C167.294 244.101 173.945 250.01 163.333 255.619C163.333 255.619 159.596 246.494 167.294 244.101Z" fill="#007673"/>
<path d="M160.942 239.913C160.942 239.913 161.539 248.813 149.956 245.298C149.956 245.298 153.767 236.173 160.942 239.913Z" fill="#007673"/>
<path d="M163.557 241.334C163.557 241.334 160.045 233.181 172.077 232.658C172.077 232.658 171.554 242.53 163.557 241.334Z" fill="#007673"/>
<path d="M158.55 233.032C158.55 233.032 154.066 240.735 146.443 231.312C146.443 231.387 154.739 225.927 158.55 233.032Z" fill="#007673"/>
<path d="M159.372 227.123C159.372 227.123 163.483 219.195 171.554 228.17C171.554 228.17 163.557 234.004 159.372 227.123Z" fill="#007673"/>
<path d="M159.073 218.597C159.073 218.597 160.643 209.846 171.031 216.054C171.031 216.054 165.127 223.982 159.073 218.597Z" fill="#007673"/>
<path d="M159.073 222.187C159.073 222.187 156.831 230.788 146.966 223.832C146.966 223.758 153.468 216.278 159.073 222.187Z" fill="#007673"/>
<path d="M156.009 213.287C156.009 213.287 151.749 205.509 163.707 203.788C163.632 203.788 164.081 213.736 156.009 213.287Z" fill="#007673"/>
<path d="M150.553 211.716C150.553 211.716 156.233 218.597 144.799 222.486C144.724 222.412 142.557 212.763 150.553 211.716Z" fill="#007673"/>
<path d="M147.863 210.819C147.863 210.819 138.97 210.744 143.379 199.45C143.379 199.45 152.198 204.013 147.863 210.819Z" fill="#007673"/>
<path d="M173.646 344.77C173.646 344.77 141.66 317.097 104.367 317.546C104.367 317.546 113.41 322.408 144.276 333.851C144.276 333.851 131.496 327.194 103.246 331.457C103.246 331.457 125.816 338.189 154.141 340.283C154.141 340.283 132.243 336.768 121.631 342.826C121.631 342.751 154.29 356.363 173.646 344.77Z" fill="#33BAB7"/>
<path d="M164.006 279.103C164.006 279.103 166.621 255.469 147.265 233.406C147.265 233.406 148.984 241.334 157.952 265.566C157.952 265.566 155.411 254.572 138.372 239.838C138.372 239.838 145.92 256.741 159.148 274.691C159.148 274.691 150.105 259.807 140.987 256.591C141.137 256.666 147.265 273.569 164.006 279.103Z" fill="#33BAB7"/>
<path d="M240.684 216.652C240.684 216.652 256.976 199.301 254.809 170.132C254.809 170.132 251.446 177.462 243.972 202.218C243.972 202.218 248.531 191.896 243.823 169.908C243.823 169.908 239.637 187.932 239.413 210.295C239.413 210.295 241.132 192.944 235.826 184.941C235.901 184.866 230.669 202.068 240.684 216.652Z" fill="#33BAB7"/>
<path d="M273.642 253.973C273.642 253.973 271.475 230.638 289.56 207.977C289.56 207.977 287.916 215.904 279.322 240.287C279.322 240.287 281.788 229.292 297.707 213.96C297.707 213.96 290.607 231.012 278.126 249.336C278.126 249.336 286.646 234.228 295.091 230.713C295.091 230.788 289.262 247.766 273.642 253.973Z" fill="#33BAB7"/>
<path d="M249.727 344.022C249.727 344.022 255.033 313.657 288.439 295.931C288.439 295.931 283.283 304.832 262.656 330.336C262.656 330.336 278.35 312.012 306.002 302.139C306.002 302.139 281.639 325.324 257.723 340.956C257.723 340.956 275.062 327.045 288.066 327.493C287.991 327.568 273.717 345.294 249.727 344.022Z" fill="#33BAB7"/>
<path d="M93.6801 300.27C96.52 304.084 99.6589 308.048 103.993 310.292C108.029 312.461 112.737 312.685 117.222 312.61C119.837 312.535 122.378 312.386 124.845 313.358C126.862 314.106 128.581 315.452 130.151 316.873C133.364 319.94 136.055 323.53 140.09 325.624C143.155 327.195 146.667 327.868 150.105 327.718C154.141 327.494 158.027 326.147 161.838 324.726C162.586 324.427 162.287 323.156 161.465 323.455C155.112 325.923 148.087 327.868 141.585 324.951C137.549 323.156 134.784 319.641 131.645 316.574C128.507 313.508 124.919 311.339 120.435 311.264C117.745 311.189 115.129 311.488 112.439 311.264C110.346 311.114 108.253 310.74 106.31 309.992C101.378 308.123 97.8652 303.71 94.8011 299.671C94.3527 298.923 93.2317 299.596 93.6801 300.27Z" fill="#007673"/>
<path d="M96.6694 302.738C96.6694 302.738 87.4023 304.533 89.5696 291.893C89.5696 291.893 99.7335 294.66 96.6694 302.738Z" fill="#007673"/>
<path d="M132.019 316.873C132.019 316.873 123.35 313.059 132.318 303.859C132.393 303.934 139.119 312.012 132.019 316.873Z" fill="#007673"/>
<path d="M141.809 326.073C141.809 326.073 149.059 332.131 137.848 338.413C137.848 338.413 133.663 328.765 141.809 326.073Z" fill="#007673"/>
<path d="M135.233 321.81C135.233 321.81 137.251 331.084 124.546 329.139C124.471 329.064 127.087 318.893 135.233 321.81Z" fill="#007673"/>
<path d="M125.442 313.283C125.442 313.283 129.478 321.81 116.698 322.857C116.698 322.857 116.923 312.311 125.442 313.283Z" fill="#007673"/>
<path d="M116.698 311.563C116.698 311.563 108.702 308.571 116.399 299.821C116.399 299.821 122.901 306.776 116.698 311.563Z" fill="#007673"/>
<path d="M108.627 312.012C108.627 312.012 116.698 316.948 106.609 324.876C106.609 324.876 101.004 315.976 108.627 312.012Z" fill="#007673"/>
<path d="M99.061 306.328C99.061 306.328 98.6873 315.826 86.8792 310.815C86.8792 310.815 91.8864 301.541 99.061 306.328Z" fill="#007673"/>
<path d="M104.89 309.394C104.89 309.394 97.4916 303.485 108.552 296.904C108.552 296.979 112.962 306.552 104.89 309.394Z" fill="#007673"/>
<path d="M180.747 340.507C180.747 340.507 189.117 302.438 169.611 299.148C146.069 295.184 162.287 273.644 143.155 270.353C124.023 267.062 135.607 243.503 121.482 236.846C107.357 230.19 108.179 250.533 117.297 262.649C126.414 274.691 104.442 283.441 129.777 299.222C155.112 315.003 121.033 326.671 163.856 341.255C206.605 355.84 180.747 340.507 180.747 340.507Z" fill="#00A9A5"/>
<path opacity="0.2" d="M181.793 346.79C181.269 346.117 180.746 345.443 180.223 344.77C141.286 294.211 114.382 236.248 114.307 236.098C108.029 238.716 110.047 253.3 117.222 262.799C126.339 274.84 104.367 283.591 129.702 299.372C155.037 315.153 120.958 326.82 163.781 341.405C172.226 344.172 177.981 345.892 181.793 346.79Z" fill="#C1EEE6"/>
<path d="M184.109 342.601C184.109 342.601 215.872 320.014 203.615 304.533C188.818 285.76 215.274 280.749 203.391 265.417C191.508 250.084 215.797 240.511 209.818 226.076C203.839 211.641 190.761 227.273 189.416 242.381C188.07 257.489 165.874 249.112 174.02 277.832C182.166 306.552 149.133 292.267 171.031 331.831C192.928 371.396 184.109 342.601 184.109 342.601Z" fill="#00A9A5"/>
<path opacity="0.2" d="M180.672 347.912C180.746 347.089 180.821 346.266 180.896 345.369C186.053 281.721 205.11 220.766 205.185 220.542C198.757 218.223 190.462 230.414 189.416 242.231C188.07 257.339 165.874 248.962 174.02 277.682C182.166 306.402 149.133 292.117 171.031 331.682C175.365 339.535 178.504 344.696 180.672 347.912Z" fill="#C1EEE6"/>
<path d="M222.747 284.563C222.747 284.563 214.825 248.364 233.36 245.223C255.78 241.483 240.31 220.99 258.545 217.849C276.706 214.708 265.72 192.345 279.172 185.988C292.625 179.631 291.803 199.002 283.133 210.52C274.464 221.963 295.39 230.265 271.25 245.298C247.186 260.331 279.546 271.4 238.815 285.236C198.085 299.073 222.747 284.563 222.747 284.563Z" fill="#00A9A5"/>
<path opacity="0.2" d="M221.701 290.472C222.15 289.873 222.673 289.2 223.196 288.527C260.19 240.436 285.824 185.315 285.899 185.165C291.877 187.633 289.934 201.545 283.133 210.52C274.464 221.963 295.39 230.265 271.25 245.298C247.186 260.331 279.546 271.4 238.815 285.236C230.819 288.004 225.363 289.574 221.701 290.472Z" fill="#C1EEE6"/>
<path opacity="0.1" d="M278.574 361C353.2 361 413.695 357.752 413.695 353.746C413.695 349.739 353.2 346.491 278.574 346.491C203.949 346.491 143.454 349.739 143.454 353.746C143.454 357.752 203.949 361 278.574 361Z" fill="#2F3F5C"/>
<path d="M272.895 347.164C272.895 347.164 233.883 360.85 279.023 352.698L280.144 344.621L272.895 347.164Z" fill="#343F3E"/>
<path d="M377.225 344.322C377.225 344.322 414.592 371.546 383.129 338.263L375.805 341.704L377.225 344.322Z" fill="#343F3E"/>
<path d="M346.284 246.42C346.284 246.42 359.886 265.342 353.235 286.358C346.583 307.375 332.309 322.782 329.394 329.438C329.394 329.438 338.512 325.399 350.544 328.167C362.577 330.859 378.794 339.161 378.794 339.161L379.317 348.061C379.317 348.061 313.401 354.269 304.806 350.679C296.137 347.089 311.234 285.236 311.234 285.236C311.234 285.236 290.009 286.657 277.977 282.918C277.977 282.918 284.105 291.519 285.301 309.095C286.496 326.671 280.144 347.313 280.144 347.313L270.354 347.388C270.354 347.388 253.762 283.965 257.275 266.838C260.788 249.785 310.187 253.3 310.187 253.3L315.792 242.007L346.284 246.42Z" fill="#7C8484"/>
<path opacity="0.5" d="M324.163 251.505C331.412 252.253 341.202 253.151 348.153 249.561C347.405 248.364 345.911 246.195 345.911 246.195L315.718 241.857L311.981 249.411C315.942 250.383 320.052 251.131 324.163 251.505Z" fill="#343F3E"/>
<path opacity="0.5" d="M311.159 285.162C311.159 285.162 311.159 285.386 311.084 285.76C311.234 285.61 311.383 285.461 311.607 285.311C304.881 276.411 303.237 263.696 300.845 252.852C286.347 252.777 259.816 254.347 257.275 266.688C253.762 283.74 270.354 347.239 270.354 347.239L280.144 347.164C280.144 347.164 286.496 326.446 285.301 308.945C284.105 291.369 277.977 282.768 277.977 282.768C289.934 286.508 311.159 285.162 311.159 285.162Z" fill="#343F3E"/>
<path d="M346.658 152.855C346.658 152.855 330.889 146.348 324.611 158.465C318.333 170.581 322.668 178.509 310.262 186.212C297.931 193.916 298.08 210.22 310.412 218.373C322.743 226.525 345.163 214.259 345.163 214.259L346.658 152.855Z" fill="#A53616"/>
<path d="M347.405 153.903C347.405 153.903 347.032 153.753 346.434 153.529C345.761 153.304 344.79 152.93 343.519 152.631C342.249 152.332 340.679 151.958 338.886 151.883C337.092 151.734 334.999 151.808 332.832 152.407C330.739 153.005 328.497 154.202 326.853 156.146C326.031 157.119 325.284 158.166 324.686 159.362C324.013 160.559 323.415 161.756 322.892 163.027C321.771 165.57 321.024 168.412 320.202 171.254C319.38 174.096 318.333 177.013 316.465 179.481C314.597 181.949 312.056 183.744 309.44 185.165C306.899 186.586 304.582 188.381 302.938 190.55C301.219 192.719 300.023 195.187 299.575 197.656C299.052 200.124 299.052 202.592 299.5 204.761C299.65 205.284 299.799 205.808 299.874 206.331C299.949 206.556 300.023 206.855 300.098 207.079C300.173 207.304 300.322 207.528 300.397 207.827C300.547 208.276 300.771 208.8 300.92 209.248C301.144 209.697 301.369 210.071 301.593 210.52C301.817 210.894 301.967 211.342 302.265 211.642C302.49 212.016 302.714 212.315 303.013 212.614C303.237 212.913 303.461 213.287 303.685 213.511C303.91 213.811 304.134 214.035 304.358 214.259C304.806 214.708 305.18 215.232 305.554 215.531C305.927 215.83 306.301 216.129 306.525 216.353C306.226 216.129 305.927 215.83 305.554 215.531C305.18 215.232 304.806 214.783 304.283 214.334C304.059 214.11 303.835 213.811 303.536 213.586C303.312 213.287 303.088 212.988 302.863 212.689C302.639 212.39 302.34 212.016 302.116 211.716C301.817 211.417 301.668 210.968 301.443 210.595C301.219 210.221 300.995 209.772 300.696 209.323C300.472 208.874 300.322 208.426 300.098 207.902C300.023 207.678 299.874 207.453 299.799 207.154C299.724 206.93 299.65 206.631 299.575 206.406C299.426 205.883 299.276 205.359 299.127 204.761C298.678 202.517 298.603 200.049 299.127 197.431C299.575 194.888 300.771 192.271 302.564 190.027C302.938 189.429 303.461 188.905 303.984 188.381C304.209 188.157 304.508 187.858 304.732 187.559L305.554 186.886C306.675 185.839 307.945 185.24 309.216 184.417C311.757 182.996 314.223 181.201 315.942 178.883C317.736 176.564 318.782 173.722 319.604 170.955C320.426 168.113 321.248 165.346 322.369 162.728C322.967 161.456 323.49 160.11 324.238 158.988C324.835 157.792 325.657 156.67 326.554 155.698C328.273 153.753 330.59 152.481 332.757 151.883C334.999 151.285 337.092 151.285 338.886 151.434C340.679 151.659 342.249 151.958 343.519 152.332C344.79 152.706 345.761 153.08 346.359 153.304C347.106 153.753 347.405 153.903 347.405 153.903Z" fill="#A53616"/>
<path d="M334.401 192.569C334.401 192.569 334.626 201.769 333.28 202.666C331.935 203.564 321.398 197.057 314.671 202.891C307.945 208.724 325.882 231.835 331.038 232.059C336.195 232.284 355.925 226.226 355.701 219.719C355.477 213.212 344.715 206.481 345.612 193.018C346.509 179.556 334.401 192.569 334.401 192.569Z" fill="#FFC1B7"/>
<path d="M334.177 199.749C338.213 199.749 342.099 199.076 345.686 197.356C345.537 195.935 345.537 194.514 345.612 193.018C346.509 179.556 334.401 192.569 334.401 192.569C334.401 192.569 334.551 196.758 334.177 199.749Z" fill="#FFA398"/>
<path d="M343.295 157.492C343.295 157.492 332.159 156.67 327.601 168.337C322.817 180.453 323.042 193.467 334.7 195.486C346.359 197.506 357.27 187.11 357.943 178.21C358.69 169.384 356.971 158.614 343.295 157.492Z" fill="#FFC1B7"/>
<path d="M339.483 158.315C339.483 158.315 337.615 166.692 350.096 174.096C350.096 174.096 334.626 202.218 347.779 210.968C360.858 219.719 346.957 232.134 352.786 238.641C358.69 245.223 378.196 241.558 385.894 224.206C396.282 200.797 362.203 196.608 368.256 176.789C368.256 176.789 373.114 162.354 362.352 154.276C351.964 146.498 341.202 148.592 339.483 158.315Z" fill="#A53616"/>
<path d="M387.912 224.58C387.912 224.58 388.061 224.206 388.285 223.458C388.584 222.711 388.809 221.589 389.107 220.168C389.332 218.747 389.481 216.952 389.257 214.932C388.958 212.913 388.285 210.744 386.94 208.65C385.67 206.556 383.876 204.461 381.783 202.442C379.691 200.423 377.374 198.478 375.132 196.234C374.011 195.112 372.815 193.991 371.769 192.719C370.723 191.448 369.676 190.027 368.929 188.456C368.182 186.885 367.584 185.24 367.434 183.445C367.36 182.996 367.36 182.547 367.36 182.099C367.36 181.65 367.36 181.201 367.36 180.752L367.509 179.406L367.808 178.135C368.705 174.919 369.004 171.628 368.63 168.412C368.331 165.196 367.285 162.129 365.491 159.661C364.594 158.39 363.548 157.343 362.427 156.445C362.128 156.221 361.829 155.996 361.53 155.772C361.231 155.548 360.932 155.323 360.559 155.174C360.26 154.949 359.961 154.8 359.662 154.575C359.363 154.426 359.064 154.201 358.765 154.052C356.299 152.706 353.683 151.808 351.292 151.509C348.825 151.21 346.509 151.584 344.715 152.481C342.921 153.379 341.651 154.725 340.903 155.922C340.754 156.221 340.53 156.52 340.38 156.819C340.231 157.118 340.156 157.417 340.007 157.642C339.932 157.941 339.782 158.165 339.708 158.39C339.633 158.614 339.558 158.839 339.558 159.063C339.409 159.811 339.259 160.26 339.259 160.26C339.259 160.26 339.334 159.811 339.483 159.063C339.558 158.839 339.558 158.614 339.633 158.39C339.708 158.165 339.782 157.866 339.857 157.642C339.932 157.343 340.007 157.044 340.156 156.744C340.306 156.445 340.455 156.146 340.604 155.772C341.352 154.501 342.548 153.005 344.416 152.032C346.284 150.985 348.676 150.537 351.292 150.761C353.907 150.985 356.598 151.808 359.213 153.154C359.512 153.304 359.886 153.528 360.185 153.678C360.484 153.902 360.783 154.052 361.157 154.276C361.456 154.501 361.754 154.65 362.128 154.875C362.502 155.099 362.801 155.323 363.1 155.548C364.37 156.52 365.491 157.642 366.463 158.988C368.406 161.606 369.602 164.897 369.975 168.337C370.349 171.703 370.05 175.293 369.153 178.583L368.929 179.78L368.78 180.977C368.705 181.351 368.705 181.8 368.78 182.173C368.78 182.547 368.78 182.996 368.854 183.37C369.004 184.941 369.527 186.511 370.2 187.932C370.872 189.353 371.769 190.7 372.815 191.896C373.787 193.168 374.908 194.29 376.029 195.412C378.271 197.581 380.513 199.675 382.606 201.769C384.623 203.863 386.417 206.032 387.688 208.276C388.958 210.52 389.631 212.838 389.78 214.932C389.93 217.026 389.705 218.821 389.406 220.317C389.033 221.738 388.659 222.86 388.36 223.608C388.061 224.206 387.912 224.58 387.912 224.58Z" fill="#A53616"/>
<path d="M353.309 176.863L350.096 185.24C350.096 185.24 353.683 188.307 356.822 182.922C360.036 177.387 356.672 174.321 353.309 176.863Z" fill="#FFC1B7"/>
<path d="M354.131 185.764C354.131 186.586 353.459 187.259 352.637 187.259C351.815 187.259 351.142 186.586 351.142 185.764C351.142 184.941 351.815 184.268 352.637 184.268C353.459 184.268 354.131 184.941 354.131 185.764Z" fill="white"/>
<path d="M336.195 172.152C335.522 173.498 334.775 174.695 333.953 175.891C333.729 176.19 333.505 176.49 333.28 176.789C333.056 177.088 332.832 177.387 332.608 177.686C332.159 178.285 331.711 178.808 331.263 179.406L331.113 178.808C332.01 179.481 332.981 180.154 333.804 180.977C332.683 180.603 331.711 180.08 330.665 179.556L330.291 179.332L330.59 178.883C330.964 178.285 331.412 177.686 331.86 177.088C332.085 176.789 332.309 176.49 332.533 176.19C332.757 175.891 332.981 175.592 333.206 175.368C334.102 174.246 335.074 173.124 336.195 172.152Z" fill="#DD9B94"/>
<path d="M328.796 169.31C328.796 169.31 328.722 169.534 328.647 169.833C328.572 170.132 328.497 170.656 328.423 171.179C328.423 171.479 328.423 171.778 328.423 172.077C328.423 172.376 328.497 172.675 328.647 172.974C328.722 173.274 328.946 173.498 329.17 173.647C329.245 173.722 329.394 173.797 329.544 173.872C329.693 173.947 329.843 174.021 329.992 174.021H330.067H330.216L330.515 174.096C330.739 174.171 330.814 174.096 330.964 174.171C331.113 174.171 331.263 174.171 331.412 174.171C331.562 174.171 331.711 174.096 331.861 174.096C332.159 174.021 332.458 173.872 332.683 173.722C332.907 173.573 333.131 173.348 333.355 173.199C333.729 172.825 334.028 172.451 334.252 172.152C334.476 171.852 334.551 171.703 334.551 171.703C334.551 171.703 334.551 171.927 334.402 172.226C334.327 172.376 334.252 172.6 334.177 172.825C334.103 173.049 333.953 173.274 333.729 173.573C333.355 174.096 332.832 174.62 332.085 174.919C331.86 174.994 331.711 175.069 331.487 175.143C331.263 175.143 331.038 175.218 330.814 175.218C330.59 175.218 330.366 175.218 330.142 175.143L329.843 175.069H329.693H329.618C329.544 175.069 329.544 175.069 329.469 174.994C329.245 174.919 329.021 174.844 328.871 174.695C328.647 174.545 328.497 174.47 328.348 174.321C328.198 174.171 328.049 174.021 327.9 173.797L327.75 173.498L327.675 173.199C327.526 172.825 327.526 172.376 327.601 172.002C327.601 171.628 327.75 171.329 327.825 171.03C327.974 170.431 328.273 169.983 328.423 169.758C328.647 169.459 328.796 169.31 328.796 169.31Z" fill="#343F3E"/>
<path d="M340.231 174.021C340.231 174.021 340.156 174.246 340.081 174.545C340.007 174.844 339.932 175.368 339.857 175.891C339.857 176.19 339.857 176.49 339.857 176.789C339.857 177.088 339.932 177.387 340.081 177.686C340.156 177.985 340.38 178.21 340.605 178.359C340.679 178.434 340.829 178.509 340.978 178.584C341.128 178.659 341.277 178.733 341.427 178.733H341.501H341.651L341.95 178.808C342.174 178.883 342.249 178.808 342.398 178.883C342.548 178.883 342.697 178.883 342.847 178.883C342.996 178.883 343.145 178.808 343.295 178.808C343.594 178.733 343.893 178.584 344.117 178.434C344.341 178.285 344.565 178.06 344.79 177.911C345.163 177.537 345.462 177.163 345.686 176.864C345.911 176.564 345.985 176.415 345.985 176.415C345.985 176.415 345.985 176.639 345.836 176.938C345.761 177.088 345.686 177.312 345.612 177.537C345.537 177.761 345.388 177.985 345.163 178.285C344.79 178.808 344.266 179.332 343.519 179.631C343.295 179.706 343.145 179.78 342.921 179.855C342.697 179.855 342.473 179.93 342.249 179.93C342.024 179.93 341.8 179.93 341.576 179.855L341.277 179.78H341.128H341.053C340.978 179.78 340.978 179.78 340.903 179.706C340.679 179.631 340.455 179.556 340.306 179.406C340.081 179.257 339.932 179.182 339.782 179.033C339.633 178.883 339.483 178.733 339.334 178.509L339.185 178.21L339.11 177.911C338.96 177.537 338.96 177.088 339.035 176.714C339.035 176.34 339.185 176.041 339.259 175.742C339.409 175.143 339.708 174.695 339.857 174.47C340.081 174.171 340.231 174.021 340.231 174.021Z" fill="#343F3E"/>
<path d="M330.142 184.717C330.142 184.717 330.665 184.941 331.412 185.24C331.786 185.39 332.234 185.539 332.683 185.614C332.907 185.689 333.131 185.689 333.43 185.764C333.654 185.838 333.953 185.838 334.177 185.913C334.401 185.988 334.7 185.988 334.925 185.988C335.149 185.988 335.448 185.988 335.672 186.063C335.896 186.063 336.12 186.063 336.345 186.063C336.569 186.063 336.793 186.063 337.017 186.063C337.391 186.063 337.765 185.988 337.989 185.988C338.213 185.988 338.362 185.988 338.362 185.988C338.362 185.988 338.213 186.063 338.063 186.212C337.839 186.362 337.54 186.512 337.092 186.661C336.868 186.736 336.644 186.811 336.419 186.886C336.195 186.96 335.896 186.96 335.672 187.035C335.373 187.035 335.149 187.11 334.85 187.11C334.551 187.11 334.252 187.11 333.953 187.035C333.654 186.96 333.355 186.96 333.131 186.886C332.832 186.811 332.608 186.736 332.309 186.586C332.085 186.512 331.861 186.362 331.636 186.212C331.412 186.063 331.188 185.988 331.038 185.838C330.441 185.24 330.142 184.717 330.142 184.717Z" fill="#DD9B94"/>
<path d="M340.829 169.683C340.829 169.683 340.978 169.534 341.277 169.459C341.576 169.31 341.95 169.16 342.548 169.085C343.071 169.01 343.743 169.01 344.416 169.085C344.715 169.16 345.089 169.235 345.462 169.384C345.836 169.459 346.135 169.683 346.434 169.833C346.733 169.983 347.032 170.282 347.331 170.431C347.63 170.656 347.854 170.955 348.078 171.179C348.302 171.404 348.452 171.703 348.601 172.002C348.751 172.226 348.825 172.526 348.975 172.75C349.199 173.273 349.274 173.722 349.274 174.021C349.349 174.321 349.349 174.545 349.349 174.545C349.349 174.545 349.199 174.47 348.975 174.246C348.825 174.171 348.751 174.021 348.601 173.872C348.452 173.722 348.302 173.573 348.078 173.423C347.854 173.273 347.704 173.124 347.48 172.974C347.256 172.825 347.032 172.675 346.882 172.451C346.658 172.301 346.434 172.152 346.21 172.002C345.985 171.852 345.761 171.703 345.462 171.553C345.014 171.254 344.491 171.03 343.968 170.805C343.444 170.581 342.996 170.357 342.548 170.207C342.099 170.057 341.726 169.908 341.427 169.833C340.978 169.758 340.829 169.683 340.829 169.683Z" fill="#A53616"/>
<path d="M329.693 164.972C329.693 164.972 329.768 164.822 329.992 164.672C330.216 164.523 330.59 164.298 331.038 164.149C331.487 163.999 332.085 163.925 332.683 163.999C333.281 164.074 333.953 164.298 334.476 164.598C334.775 164.822 334.999 164.972 335.224 165.196C335.448 165.42 335.672 165.645 335.821 165.869C335.971 166.093 336.12 166.318 336.27 166.542C336.419 166.767 336.494 166.991 336.569 167.215C336.644 167.44 336.718 167.664 336.718 167.814C336.793 167.963 336.793 168.188 336.793 168.262C336.793 168.562 336.793 168.711 336.793 168.711C336.793 168.711 336.644 168.636 336.419 168.487C336.195 168.337 335.896 168.113 335.597 167.888C335.448 167.739 335.224 167.664 335.074 167.515C334.925 167.365 334.7 167.29 334.476 167.141C334.327 166.991 334.103 166.916 333.878 166.767C333.654 166.617 333.505 166.542 333.281 166.393C333.056 166.243 332.907 166.168 332.683 166.019C332.458 165.944 332.309 165.794 332.085 165.72C331.861 165.645 331.711 165.57 331.487 165.495C331.263 165.42 331.113 165.346 330.889 165.271C330.515 165.121 330.142 165.046 329.917 164.972C329.843 165.046 329.693 164.972 329.693 164.972Z" fill="#A53616"/>
<path d="M305.404 215.53L295.016 226.974L256.677 212.838L255.332 221.215C255.332 221.215 292.326 241.408 295.988 241.408C299.65 241.408 317.511 222.262 317.511 222.262L305.404 215.53Z" fill="#FFC1B7"/>
<path d="M273.418 219.046L256.602 212.838L255.257 221.215C255.257 221.215 269.457 228.993 281.116 234.827C278.724 229.591 276.258 224.206 273.418 219.046Z" fill="#FFA398"/>
<path d="M314.597 225.328C316.39 223.458 317.511 222.262 317.511 222.262L305.404 215.531L302.938 218.223C306.824 220.616 310.412 223.458 314.597 225.328Z" fill="#FFA398"/>
<path d="M261.61 215.979C261.61 215.979 261.46 199.001 259.293 213.436C257.126 227.796 261.61 215.979 261.61 215.979Z" fill="#FFA398"/>
<path d="M311.607 221.963L302.863 215.605C302.863 215.605 312.28 201.171 319.828 200.647C319.828 200.647 312.28 215.605 311.607 221.963Z" fill="#F6A444"/>
<path d="M319.828 200.647C319.828 200.647 316.914 211.417 329.917 216.578C342.921 221.738 348.526 209.173 352.786 216.353C357.046 223.533 346.733 247.093 346.733 247.093C346.733 247.093 328.796 248.439 315.344 242.156C315.344 242.156 314.672 236.996 314.447 232.284C314.447 232.284 301.668 226.375 314.447 211.193L314.672 202.891C314.672 202.891 316.241 200.647 319.828 200.647Z" fill="#F6A444"/>
<path opacity="0.2" d="M340.978 237.744C334.85 236.996 328.647 236.098 322.519 234.827C319.828 234.303 316.988 233.63 314.447 232.359C314.671 237.071 315.344 242.156 315.344 242.156C328.796 248.439 346.733 247.093 346.733 247.093C346.733 247.093 348.302 243.428 350.021 238.566C347.032 238.342 343.968 238.118 340.978 237.744Z" fill="#343F3E"/>
<path d="M179.028 347.762L160.792 352.624L151.45 268.109H185.231L186.949 274.317H228.278L232.463 344.995L179.028 347.762Z" fill="#EC4E20"/>
<path d="M163.856 349.482L161.764 277.458L254.884 277.084L235.527 347.463L163.856 349.482Z" fill="white"/>
<path opacity="0.3" d="M163.856 349.482L161.764 277.458L254.884 277.084L235.527 347.463L163.856 349.482Z" fill="#7A8DB5"/>
<path d="M170.433 347.762L168.34 279.477L261.385 279.178L242.104 349.482L170.433 347.762Z" fill="white"/>
<path opacity="0.1" d="M170.433 347.762L168.34 279.477L261.385 279.178L242.104 349.482L170.433 347.762Z" fill="#7A8DB5"/>
<path d="M202.569 311.563L200.551 243.278L293.596 242.904L290.457 313.657L202.569 311.563Z" fill="white"/>
<path opacity="0.1" d="M201.597 282.843L202.569 311.563L290.457 313.657L292.475 268.259L201.597 282.843Z" fill="#7A8DB5"/>
<path d="M170.059 261.901L167.967 193.617L261.012 193.243L257.948 263.995L170.059 261.901Z" fill="white"/>
<path opacity="0.1" d="M169.686 249.187L170.059 261.901L257.948 263.995L260.937 195.636L169.686 249.187Z" fill="#7A8DB5"/>
<path d="M160.792 352.623H252.417L279.696 278.43H249.353L246.588 283.666H184.184L160.792 352.623Z" fill="#EC4E20"/>
<path d="M332.832 227.273L315.419 246.27C315.419 246.27 292.625 248.738 287.468 249.336C287.02 249.411 286.646 249.411 286.272 249.486C280.368 244.924 282.834 248.215 284.18 249.935C267.29 253.749 281.564 252.179 281.564 252.179C266.393 257.564 282.536 253.674 282.536 253.674C270.727 262.35 283.657 255.021 283.657 255.021C274.913 263.696 285.45 255.694 285.45 255.694C285.45 255.694 316.241 258.835 322.444 256.142C328.722 253.45 341.651 239.614 341.651 239.614C336.569 236.398 332.832 227.273 332.832 227.273Z" fill="#FFC1B7"/>
<path d="M339.932 241.409C341.053 240.287 341.726 239.539 341.726 239.539C336.569 236.398 332.832 227.273 332.832 227.273L327.825 232.733C331.786 235.724 335.822 238.641 339.932 241.409Z" fill="#FFA398"/>
<path d="M328.498 230.04L342.099 239.913C342.099 239.913 346.658 235.201 349.947 230.339C353.235 225.478 336.419 220.242 336.419 220.242L328.498 230.04Z" fill="#F9C050"/>
</svg>
