<?xml version="1.0" encoding="utf-8"?>
<!-- Generator: Adobe Illustrator 25.2.1, SVG Export Plug-In . SVG Version: 6.00 Build 0)  -->
<svg version="1.1" id="Layer_1" xmlns="http://www.w3.org/2000/svg" xmlns:xlink="http://www.w3.org/1999/xlink" x="0px" y="0px"
	 viewBox="0 0 444 417" style="enable-background:new 0 0 444 417;" xml:space="preserve">
<style type="text/css">
	.st0{fill:#343F3E;}
	.st1{fill:#007673;}
	.st2{fill:url(#SVGID_1_);}
	.st3{fill:url(#SVGID_2_);}
	.st4{fill:#00A9A5;}
	.st5{fill:url(#SVGID_3_);}
	.st6{fill:url(#SVGID_4_);}
	.st7{fill:url(#SVGID_5_);}
	.st8{opacity:0.32;fill:#343F3E;enable-background:new    ;}
	.st9{fill:url(#SVGID_6_);}
	.st10{opacity:0.32;fill:#007673;enable-background:new    ;}
	.st11{fill:url(#SVGID_7_);}
	.st12{fill:#33BAB7;}
	.st13{fill:url(#SVGID_8_);}
	.st14{fill:url(#SVGID_9_);}
	.st15{opacity:0.2;fill:#EC4E20;enable-background:new    ;}
	.st16{opacity:0.2;fill:#343F3E;enable-background:new    ;}
	.st17{fill:url(#SVGID_10_);}
	.st18{opacity:0.32;fill:#7E5175;enable-background:new    ;}
	.st19{fill:url(#SVGID_11_);}
	.st20{opacity:0.32;fill:#A53616;enable-background:new    ;}
	.st21{fill:#EFDBCA;}
	.st22{fill:#E3170A;}
	.st23{fill:#A53616;}
	.st24{fill:#00A9A5;fill-opacity:0.36;}
	.st25{fill:#7F134F;}
	.st26{fill:#9DC2DA;}
	.st27{fill:#5C1931;}
	.st28{fill:#9E1007;}
	.st29{fill:#E27A4D;}
	.st30{fill:#E3170A;fill-opacity:0.36;}
	.st31{fill:#9A134F;}
	.st32{fill:#F0D8D8;}
	.st33{fill:#B8134F;}
	.st34{fill:#EF714C;}
	.st35{fill:#337079;}
	.st36{fill:#EC4E20;fill-opacity:0.36;}
	.st37{fill:#811343;}
</style>
<g>
	<g>
		<path class="st0" d="M56.9,283.2h6.2l-0.9-4.6h-1.4L56.9,283.2z"/>
		<path d="M59.5,263.2l-5,16.1l2.4,3.9l12-14L59.5,263.2z"/>
		<path d="M58.4,305.5l-1-5l6-21.7l5.5,2.1L58.4,305.5z"/>
		<path class="st1" d="M205.9,102.2L195.7,227c0,0-53.8-4.2-108.4,0L73.9,93.6C75.4,93.1,156,67.7,205.9,102.2z"/>
		<path class="st1" d="M205.9,102.2c0,0,21.6-14.8,38.4-14.6c5.1,0.1-35.1,142.6-35.1,142.6l-13.5-3.2L205.9,102.2z"/>
		
			<linearGradient id="SVGID_1_" gradientUnits="userSpaceOnUse" x1="230.8981" y1="185.898" x2="230.8981" y2="329.4156" gradientTransform="matrix(1 0 0 -1 0 417)">
			<stop  offset="0" style="stop-color:#1F637A"/>
			<stop  offset="1" style="stop-color:#36958F"/>
		</linearGradient>
		<path class="st2" d="M244.3,87.6c0,0,5.9,3.5,8.2,11.3c2.4,7.7-38,132.2-38,132.2l-5.4-0.9C209.2,230.2,233.1,101.8,244.3,87.6z"
			/>
		
			<linearGradient id="SVGID_2_" gradientUnits="userSpaceOnUse" x1="62.8495" y1="177.053" x2="62.8495" y2="341.5002" gradientTransform="matrix(1 0 0 -1 0 417)">
			<stop  offset="0" style="stop-color:#1F5466"/>
			<stop  offset="1" style="stop-color:#366D7E"/>
		</linearGradient>
		<path class="st3" d="M55.8,75.5c0,0-12.6,5.2-12.5,24.3c0,12.8,27.9,140.2,27.9,140.2l11.1-4.5L55.8,75.5z"/>
		<path class="st4" d="M87.5,227l-7.7,3.2c-0.1,0-29.9-156-23.9-154.7s18.1,18.1,18.1,18.1v0.1L87.5,227z"/>
		<path class="st4" d="M198.6,195.5c0,0,7.4-14.2,25.9-17.2c18.6-3,42.5,0,42.5,0l-35.9,20.8L198.6,195.5z"/>
		
			<linearGradient id="SVGID_3_" gradientUnits="userSpaceOnUse" x1="62.7254" y1="129.961" x2="62.7254" y2="213.289" gradientTransform="matrix(1 0 0 -1 0 417)">
			<stop  offset="0" style="stop-color:#113954"/>
			<stop  offset="1" style="stop-color:#1F4F61"/>
		</linearGradient>
		<path class="st5" d="M61.9,287l-5.9-21.2l5.1-62l8.2,3.7L61.9,287z"/>
		
			<linearGradient id="SVGID_4_" gradientUnits="userSpaceOnUse" x1="214.154" y1="180.665" x2="214.154" y2="221.528" gradientTransform="matrix(1 0 0 -1 0 417)">
			<stop  offset="0" style="stop-color:#505A5B"/>
			<stop  offset="1" style="stop-color:#007673"/>
		</linearGradient>
		<path class="st6" d="M231.1,199.1l-32.5-3.6l-1.4,30.6c0,0,13.8,1.7,31.1,10.2L231.1,199.1z"/>
		
			<linearGradient id="SVGID_5_" gradientUnits="userSpaceOnUse" x1="52.8017" y1="202.143" x2="52.8017" y2="239.652" gradientTransform="matrix(1 0 0 -1 0 417)">
			<stop  offset="0" style="stop-color:#113954"/>
			<stop  offset="1" style="stop-color:#1F4F61"/>
		</linearGradient>
		<path class="st7" d="M67.1,211.9l-6.9,3c0,0-13.8-9.5-18.7-18.8c-4.2-8.2-6.2-17.2,7.5-18.8L67.1,211.9z"/>
		<path class="st0" d="M68.5,281.8l-10.1,23.7h3.1c0,0,12.1-10,20.8-13.5l155.4-0.4c0,0,8.2,1.1,17.4,13.7l4.1-0.1l-4.1-25.2
			L68.5,281.8z"/>
		<path d="M255,305.4l-2-0.4c0,0-10.5-11.3-21.6-13.5h6.2C237.6,291.5,247.3,292.8,255,305.4z"/>
		<path class="st8" d="M228.9,228.6l-30.3-33.1l7.4-93.3c-2.6,0-25.3,95.7-29.7,95.7c-27-0.5-75.4-0.9-90.7-21.1l-10.3-70l7.8,77.1
			l-14.2-12.2l-12.1,0.7l0.9,4.2l34.6,47.1c0,0,90.9-2,104.8,2.2c0,0,20.9,3.5,31.3,8.7L228.9,228.6z"/>
		<path class="st0" d="M60.7,288.8l3.4,3.4l192.1-5.1l-0.2-2l-194.3,0.7L60.7,288.8z"/>
		
			<linearGradient id="SVGID_6_" gradientUnits="userSpaceOnUse" x1="159.3275" y1="129.961" x2="159.3275" y2="240.2239" gradientTransform="matrix(1 0 0 -1 0 417)">
			<stop  offset="0" style="stop-color:#017774"/>
			<stop  offset="1" style="stop-color:#36958F"/>
		</linearGradient>
		<path class="st9" d="M96.7,274l-7-80.5c0,0-15.8-18.4-38.1-16.6c-20.8,1.9-0.5,29.7,15.4,34.9L61.8,287l197.1-2l-4.5-71.9
			c0,0,24.2-13,21.3-28.5c-2.1-11.5-27.5-5.6-35,1.1c-7.4,6.7-9.7,13.2-9.7,13.2l-5.1,71.1L96.7,274z"/>
		<path class="st10" d="M51.7,188.4c0,0,0.5-6.1,8.8-6.6c10.7-0.6,26.9,13.3,26.9,13.3l4.5,80.4l-6.2-79.4L51.7,188.4z"/>
		<path class="st10" d="M269.7,186.6c0,0-3.1-5.4-15.9-0.7c-12.8,4.6-19.3,11.3-19.3,11.3l-3.6,82.7l8.6-80.9
			C239.6,199.1,262,185.9,269.7,186.6z"/>
		
			<linearGradient id="SVGID_7_" gradientUnits="userSpaceOnUse" x1="163.0136" y1="143.005" x2="163.0136" y2="184.9258" gradientTransform="matrix(1 0 0 -1 0 417)">
			<stop  offset="0" style="stop-color:#1F5466"/>
			<stop  offset="1" style="stop-color:#366D7E"/>
		</linearGradient>
		<path class="st11" d="M95.9,274l-2.6-39c0,0,96.8-7.5,139.4,2l-5.2,37.1H95.9V274z"/>
		<path class="st12" d="M92.4,224c0,0,58.9-2.5,104.8,2.2c14,3,25.2,5.6,35.6,10.7c0,0-86.3-5.6-139.4-2L92.4,224z"/>
		<path class="st1" d="M92.4,281.8c-9.3,2.4-15.7,2.9-23.9,0l2.7-71.1c0,0-25.2-15.7-18.6-24.7l0.1-0.1l0.1-0.1
			c7.1-8.1,32,9.8,32.6,10.3l2.4,30.6L92.4,281.8z"/>
		<path class="st1" d="M249.7,210l1.1,17.7l3.1,52.2c-7.8,2.4-14.6,2.5-22.9,0l3.1-40l3.2-42.1c0.6-0.5,26-19.4,32.5-11.2
			c0.4,0.4,0.5,0.9,0.6,1.4C271.6,195.2,249.7,210,249.7,210z"/>
		
			<linearGradient id="SVGID_8_" gradientUnits="userSpaceOnUse" x1="72.0152" y1="133.2266" x2="72.0152" y2="230.996" gradientTransform="matrix(1 0 0 -1 0 417)">
			<stop  offset="0" style="stop-color:#113954"/>
			<stop  offset="1" style="stop-color:#1F4F61"/>
		</linearGradient>
		<path class="st13" d="M92.4,281.8c-9.3,2.4-15.7,2.9-23.9,0l2.7-71.1c0,0-25.2-15.7-18.6-24.7c-0.1,0.2-2.4,3.4,1.6,8.8
			c4,5.6,20.3,13,20.3,13l1.1,69.8c0,0,9.8,4.4,14.5,1.2L92.4,281.8z"/>
		
			<linearGradient id="SVGID_9_" gradientUnits="userSpaceOnUse" x1="242.4345" y1="135.2396" x2="242.4345" y2="219.161" gradientTransform="matrix(1 0 0 -1 0 417)">
			<stop  offset="0" style="stop-color:#113954"/>
			<stop  offset="1" style="stop-color:#1F4F61"/>
		</linearGradient>
		<path class="st14" d="M253.9,279.9c-7.8,2.4-14.6,2.5-22.9,0l6.4-82.1l2.2,1.2l-3.2,74.9c0,0,6.1,5.1,15.3,3.7L253.9,279.9z"/>
		<path class="st12" d="M270.3,188c-7.1-6.6-30.9,11.1-30.9,11.1l-2.2-1.2c0.6-0.5,26-19.4,32.5-11.2
			C270.1,187,270.3,187.5,270.3,188z"/>
		<path class="st12" d="M52.9,185.8l-0.1,0.1C52.9,185.9,52.9,185.8,52.9,185.8z"/>
		<path class="st12" d="M85.6,196.1l-2,1.1c0,0-12.8-10.2-20.9-12.2c-6.5-1.6-9,0-9.8,0.7C60,177.7,85,195.6,85.6,196.1z"/>
		<path d="M93.3,235l1.6,45l125.3-1.4l3.6-4.6H96.7L93.3,235z"/>
		<path class="st15" d="M92.4,281.8c-9.3,2.4-15.7,2.9-23.9,0l2.7-71.1c0,0,4.4,13.7,16.8,16.1c0.4,0.1,0.7,0.1,1.1,0.1L92.4,281.8z
			"/>
		<path class="st15" d="M253.9,279.9c-7.8,2.4-14.6,2.5-22.9,0l3.1-40c8.2-1.9,16.7-12.1,16.7-12.1L253.9,279.9z"/>
		<path class="st16" d="M232.8,236.8l-6.9,30.4c0,0-103,10.7-126.6-9.8L93.3,235l3.4,39.1h130.8L232.8,236.8z"/>
		
			<linearGradient id="SVGID_10_" gradientUnits="userSpaceOnUse" x1="237.513" y1="238.72" x2="237.513" y2="324.0352" gradientTransform="matrix(1 0 0 -1 0 417)">
			<stop  offset="0" style="stop-color:#1F5466"/>
			<stop  offset="1" style="stop-color:#366D7E"/>
		</linearGradient>
		<path class="st17" d="M250.4,104.2c-1,4.9-12.2,41.4-18.3,61v0.1l-0.4,1.2l-0.1,0.6l-0.4,1.1l-0.1,0.6l-0.4,1.1l-0.9,2.9l-0.2,0.9
			l-0.1,0.4l-0.2,0.7l-0.9,2.9l-3.7,0.5c0,0,13.8-69.4,18.8-83c0.5-1.5,1-2.2,1.2-2.2C247.7,92.8,250.4,104.2,250.4,104.2z"/>
		<path class="st1" d="M65.4,178.3l-4.2-0.9c0,0-14.6-70.3-15.2-75.6c-0.6-5.5,4.7-15.6,6.2-15.2c1.1,0.2,8.1,52.7,11.5,78.1v0.1
			l0.2,1.5l0.1,0.9l0.1,1.2l0.1,1.4l0.2,1.9c0.1,0.7,0.2,1.5,0.2,2.1c0,0.5,0.1,0.9,0.1,1.2l0.1,1.2l0.1,0.6L65.4,178.3z"/>
		<path class="st1" d="M232.1,165.2v0.1l-0.4,1.2l-0.1,0.6l-0.4,1.1l-0.1,0.6l-0.4,1.1l-0.9,2.9l-0.2,0.9l-0.1,0.4l-0.2,0.7
			l-0.9,2.9l-3.7,0.5c0,0,13.8-69.4,18.8-83l1.2-2.2C244.1,94.7,229.1,151.9,232.1,165.2z"/>
		<path class="st10" d="M65.4,178.3l-4.2-0.9c0,0-14.6-70.3-15.2-75.6c-0.6-5.5,4.7-15.6,6.2-15.2c0,0-4.5,7.1-4.5,13
			c0,5.9,10.8,57.9,12.2,60.7c1.4,2.7,3.7,4.5,3.7,4.5v0.1l0.2,1.5l0.1,0.9l0.1,1.2l0.1,1.4l0.2,1.9l0.2,2.1l0.1,1.2l0.1,1.2
			l0.1,0.6L65.4,178.3z"/>
		<path class="st12" d="M205.9,102.2l-5.7,4.2c0,0-37.7-28-119.6-8.3l-6.7-4.6C75.4,93.1,156,67.7,205.9,102.2z"/>
		<path class="st12" d="M73.9,93.7l-1.5,12.7L55.8,75.5C61.9,76.7,73.9,93.6,73.9,93.7z"/>
		<path class="st18" d="M120.3,171.8L92.4,224h27.7l17.4-38.2L120.3,171.8z"/>
		
			<linearGradient id="SVGID_11_" gradientUnits="userSpaceOnUse" x1="158.4059" y1="187.469" x2="154.4789" y2="252.023" gradientTransform="matrix(1 0 0 -1 0 417)">
			<stop  offset="0" style="stop-color:#F6A444"/>
			<stop  offset="1" style="stop-color:#F6A444"/>
		</linearGradient>
		<path class="st19" d="M189.2,220.5l11.5,6.4h-1.4h-1h-0.7c-0.6,0-1.2,0-2,0h-1.1h-1.9H192h-1.4h-1.5c-0.7,0-1.5,0-2.4-0.1
			c-0.7,0-1.6,0-2.5-0.1h-0.9c-1.5,0-3-0.1-4.6-0.1l-4.9-0.1c-2-0.1-4.1-0.1-6.2-0.2h-2.1c-1.4,0-2.9-0.1-4.4-0.1l-4.4-0.1l-4.4-0.1
			h-1.1l-3.4-0.1h-2.4l-2-0.1l-5.4-0.1h-1.6l-4-0.1c-14.8-0.4-26.2-0.7-26.2-0.7l13.5-12.7l-0.5-1c-1.2-2.4-4.1-8.2-4.4-9.1
			c-0.6-2.2,5.6-9.1,7.1-13.3c0.1-0.2,0.1-0.5,0.1-0.7c0.4-5-7.1-18.1-6.5-19.7c0.7-1.6,25.8,9.8,42.5,9.3c11.6-0.4,28.8-4.9,39-7.6
			c3.1-0.7,5.6-1.5,7.1-1.7c0.6-0.1,1.1-0.2,1.4-0.2c0.1,0,0.2,0,0.2,0.1c1.9,1.4-9.2,18.2-10.5,20.6c-1.2,2.5-0.4,26.5-1.1,26.8
			C193.8,215.2,189.2,220.5,189.2,220.5z"/>
		<path class="st20" d="M189.2,220.5l11.5,6.4h-1.4h-1h-0.7c-0.6,0-1.2,0-2,0h-1.1h-1.9H192h-1.4h-1.5l-2.4-0.1l-2.5-0.1h-0.9
			l-4.6-0.1l-4.9-0.1l-6.2-0.2h-2.1l-4.4-0.1l-4.4-0.1l-4.4-0.1h-1.1l-3.4-0.1h-2.4l-2-0.1l-5.4-0.1h-1.6l-4-0.1
			c0,0,32.1,0.2,35.3-4.4c1.4-1.9-6.2-6.7-6.2-6.7l17.7-15.9l26.4-30.5l0.2,0.1c1.9,1.4-9.2,18.2-10.5,20.6
			c-1.2,2.5-0.4,26.5-1.1,26.8C193.8,215.2,189.2,220.5,189.2,220.5z"/>
		<path class="st20" d="M115.2,201.3c2.9,5.4,5.2,8,10.1,11.6l-5.2-1.4L115.2,201.3z"/>
		<path class="st20" d="M122.5,187.2c0.4-5-7.1-18.1-6.5-19.7c0,0,7,2.7,8,4.7C125,173.9,123.1,184.3,122.5,187.2z"/>
		<path class="st20" d="M194.6,214.9l-19.8-7.8l-13,6.7l27.4,6.7L194.6,214.9z"/>
		<path class="st20" d="M195.7,188l-16.2,9.8l26.4-30.5c0.1,0,0.2,0,0.2,0.1C208.1,168.8,197,185.6,195.7,188z"/>
		<path class="st21" d="M204.6,167.4c-1.1,0.6-17.6,24.8-29.2,24.3c-11.7-0.5-52.1-9.2-52.1-9.2s1-8.8,0.7-10.3
			c-0.2-1.6-8.1-4.7-8.1-4.7c0.7-1.6,25.8,9.8,42.5,9.3c11.6-0.4,28.8-4.9,39-7.6C200.6,168.4,202.9,167.8,204.6,167.4z"/>
		<path class="st18" d="M118.2,227l-14.1,0.6L116,234l-8.5,40h62.9l5.5-5.9L120.8,225L118.2,227z"/>
		<path class="st22" d="M109.8,220.8l10.3,7.6l59.4-0.7l-31.4-7.1L109.8,220.8z"/>
		<path class="st23" d="M120.1,228.4l1.2,9l59.1-2.2l-0.9-7.5L120.1,228.4z"/>
		<path class="st24" d="M118.7,265.4l-4.9-1.4l5.6-30.5L118.7,265.4z"/>
		<path class="st25" d="M121.3,237.3v33.8l59.1-2.4v-33.6L121.3,237.3z"/>
		<path class="st26" d="M111.6,222.1v6.4l7.8,5l-2.9,33.8l4.9,1.5v-31.4c0,0-3-4.4-1.4-8.8L111.6,222.1z"/>
		<path class="st27" d="M120.1,228.4c0,0-2.4,4.6,1.4,8.8L120.1,228.4z"/>
		<path class="st23" d="M109.8,220.8v1.4l10.3,7.2v-1L109.8,220.8z"/>
		<path class="st28" d="M121.3,271.1l-1-0.5l0.6-34.1l0.4,0.9V271.1z"/>
		<path class="st29" d="M123.8,230.1l36-0.7l0.7,5.6l-36,1.1L123.8,230.1z"/>
		<path class="st29" d="M173.5,227.7l0.7,7.6l3.9-0.1l-0.5-7.5H173.5z"/>
		<path class="st30" d="M177.4,238.6l-54.9,1.4l1.4,28.8l54.3-3.4L177.4,238.6z M124.7,267.2l-0.9-25.5l52.6-1.7l0.7,23.4
			L124.7,267.2z"/>
	</g>
</g>
<g>
	<g>
		<path class="st25" d="M310.9,341.5v-17.9l78.2-0.9l-0.5,18.8H310.9z"/>
		<path class="st31" d="M291.8,304.5l0.1,3.6l16.9,15.4v12.2l-16.7-20.4l0.1,2.1l18.7,24v-17.9L291.8,304.5z"/>
		<path class="st31" d="M389.2,322.7l-38.6-19.4l-58.8,1.2l19.2,19.1L389.2,322.7z"/>
		<path class="st32" d="M294.1,317.7l14.7,18.1v-12.2l-15.1-14.1L294.1,317.7z"/>
		<path class="st25" d="M292.1,315.3h1.9l0.1,2.4L292.1,315.3z"/>
		<path class="st33" d="M314.6,321.6V316l81.7,1.7v3.9H314.6z"/>
		<path class="st34" d="M314.6,316l-18.8-15.6h71l29.5,17.3L314.6,316z"/>
		<path class="st23" d="M295.7,300.4l0.5,1.6l17.3,14v2.9l-17.8-14.9v0.6l18.8,17.1V316L295.7,300.4z"/>
		<path class="st32" d="M297.1,302.6l0.7,3.1l15.7,13.7V316L297.1,302.6z"/>
		<path class="st33" d="M295.7,303.9h1.6l0.5,1.9L295.7,303.9z"/>
		<path class="st1" d="M296.5,296.5v-10.7l61.8,1.1l3.6,7.7L296.5,296.5z"/>
		<path class="st35" d="M296.5,296.5l20.8,16.9l70.3,1.1L346,293.2L296.5,296.5z"/>
		<path class="st4" d="M296.5,285.8l26,17.9l68.1,1.4l-34-18.3L296.5,285.8z"/>
		<path class="st1" d="M390.7,305.1v1.6l-66.8-0.9l-1.4-2.1L390.7,305.1z"/>
		<path class="st1" d="M317.3,313.5l1.1-1.6l68.5,0.4l0.6,2.4L317.3,313.5z"/>
		<path class="st32" d="M386.8,306.6l-1.6,5.6l-66.8-0.4l-20.1-15.3l1-7.5l24.5,16.8L386.8,306.6z"/>
		<path class="st35" d="M323.9,305.9l-24.5-16.8l-2.9-3.2l26,17.9L323.9,305.9z"/>
		<path class="st36" d="M319.4,311.9c0,0,2-1.6,3.1-2.7c1.1-1.1,1.2-3.1,1.2-3.1l63,0.7l-1.6,5.5L319.4,311.9z"/>
		<path class="st33" d="M300.7,284.9h2.1v1.7L300.7,284.9z"/>
		<path class="st37" d="M324,301.8v-17.7l81.6,1.7l-1.1,15.9H324z"/>
		<path class="st22" d="M324,284.1l-23.3-14.7l75.4-0.9l29.5,17.3L324,284.1z"/>
		<path class="st31" d="M300.7,269.4v1.7l22.3,14v14l-22.3-14.1v0.5l23.3,16.3v-17.7L300.7,269.4z"/>
		<path class="st32" d="M302.9,272.4l-0.1,13.8L323,299v-14L302.9,272.4z"/>
		<path class="st23" d="M369.3,322.9v18.6h7.8l0.6-18.8L369.3,322.9z"/>
		<path class="st23" d="M320.8,327.2h37v10.3l-37,0.9V327.2z"/>
		<path class="st28" d="M334.5,286.7l-3.2,2.9v7.5l2.5,2.6l60.9-0.9l3.1-1.6l0.7-7l-3.6-2.7L334.5,286.7z"/>
		<path class="st28" d="M331.3,316.3v5.2h34.6l0.6-4.5L331.3,316.3z"/>
		<path class="st36" d="M302.7,276.2l17.4,12.8l2.9,10v-14l-20.2-12.7L302.7,276.2z"/>
		<path class="st36" d="M299.1,291.2l24,17.1l0.9-0.6l-0.1-1.7l-24.5-16.8L299.1,291.2z"/>
		<path class="st36" d="M293.8,310.6l13.5,14.6l1.6,10.6v-12.2l-15.1-14.1V310.6z"/>
	</g>
</g>
</svg>
