<svg width="444" height="417" viewBox="0 0 444 417" fill="none" xmlns="http://www.w3.org/2000/svg">
<path d="M239.998 239.772L329.243 239.949C336.988 239.949 343.237 233.686 343.237 225.923C343.237 218.16 336.988 211.896 329.331 211.896L240.086 211.72C239.294 211.72 238.59 211.014 238.59 210.22C238.59 209.426 239.294 208.721 240.086 208.721L329.331 208.897C338.748 208.897 346.317 216.572 346.317 226.011C346.317 235.45 338.66 243.036 329.331 243.036L240.086 242.86C239.294 242.86 238.59 242.154 238.59 241.36C238.414 240.39 239.118 239.772 239.998 239.772Z" fill="#EC4E20"/>
<path d="M240.79 211.72L325.634 211.896C333.379 211.896 339.628 218.159 339.628 225.922C339.628 233.685 333.379 239.949 325.634 239.86L240.79 239.684V211.72Z" fill="#DDD7D5"/>
<path d="M240.702 236.244L327.57 236.42C335.843 236.42 339.54 229.98 339.54 225.922C339.54 218.159 333.291 211.896 325.546 211.896H329.155C336.9 211.896 343.148 218.159 343.148 225.922C343.148 233.685 336.9 239.949 329.155 239.949L240.702 239.772V236.244Z" fill="#C6BFB8"/>
<path d="M321.058 217.365C309.88 217.63 298.703 217.542 287.525 217.63C276.347 217.542 265.17 217.542 253.992 217.277C265.17 217.013 276.347 217.101 287.525 217.013C298.615 217.101 309.88 217.013 321.058 217.365Z" fill="#A89F9E"/>
<path d="M335.58 225.922C318.505 226.187 301.431 226.187 284.445 225.834C301.519 225.481 318.593 225.57 335.58 225.922Z" fill="#A89F9E"/>
<path d="M307.68 233.421C285.413 233.686 263.058 233.686 240.791 233.333C263.058 232.98 285.325 232.98 307.68 233.421Z" fill="#A89F9E"/>
<path d="M312.168 228.922C288.405 229.186 264.554 229.186 240.791 228.834C264.554 228.569 288.317 228.569 312.168 228.922Z" fill="#A89F9E"/>
<path d="M312.168 221.071C300.287 221.423 288.405 221.247 276.436 221.423C264.554 221.247 252.672 221.335 240.703 220.982C252.584 220.63 264.466 220.806 276.436 220.63C288.405 220.806 300.287 220.718 312.168 221.071Z" fill="#A89F9E"/>
<path d="M269.043 214.543C259.625 214.807 250.208 214.807 240.703 214.454C250.208 214.19 259.625 214.19 269.043 214.543Z" fill="#A89F9E"/>
<path d="M322.554 237.39C296.942 237.655 271.331 237.655 245.807 237.302C271.331 236.949 296.942 237.037 322.554 237.39Z" fill="#A89F9E"/>
<path d="M325.018 222.923C320.442 223.276 315.777 223.188 311.2 223.276C306.624 223.099 301.959 223.188 297.382 222.835C301.959 222.482 306.624 222.57 311.2 222.482C315.777 222.658 320.354 222.57 325.018 222.923Z" fill="#A89F9E"/>
<path d="M234.542 248.153L335.14 248.329C340.948 248.329 345.613 253.093 345.613 258.915C345.613 264.737 340.948 269.501 335.14 269.501L234.63 269.324L234.542 248.153Z" fill="#DDD7D5"/>
<path d="M233.662 269.324L337.78 269.501C343.589 269.413 348.253 264.737 348.253 258.915C348.253 253.093 343.589 248.417 337.868 248.329L233.75 248.153C232.253 248.153 231.109 246.918 231.109 245.418C231.109 243.918 232.341 242.683 233.838 242.683L339.276 242.86C347.373 243.566 353.798 250.535 353.798 258.827C353.798 267.119 347.373 274.088 339.276 274.794L233.838 274.617C232.341 274.617 231.109 273.382 231.197 271.883C230.933 270.471 232.165 269.324 233.662 269.324Z" fill="#9E1007"/>
<path d="M322.466 252.211C296.942 252.475 271.331 252.475 245.807 252.122C271.331 251.77 296.854 251.858 322.466 252.211Z" fill="#A89F9E"/>
<path d="M334.876 258.915C316.833 259.18 298.791 259.092 280.66 258.827C298.791 258.562 316.833 258.562 334.876 258.915Z" fill="#A89F9E"/>
<path d="M311.024 263.679L272.739 263.767L234.454 263.502L272.739 263.326L311.024 263.679Z" fill="#A89F9E"/>
<path d="M314.809 260.856L274.675 260.944L234.454 260.68L274.675 260.503L314.809 260.856Z" fill="#A89F9E"/>
<path d="M314.897 255.475C301.519 255.739 288.141 255.651 274.675 255.739C261.297 255.563 247.92 255.651 234.542 255.387C247.92 255.122 261.297 255.21 274.675 255.122C288.053 255.21 301.431 255.122 314.897 255.475Z" fill="#A89F9E"/>
<path d="M258.745 249.829C250.648 250.094 242.639 250.094 234.542 249.829C242.551 249.476 250.648 249.476 258.745 249.829Z" fill="#A89F9E"/>
<path d="M323.698 265.355L281.276 265.443L238.766 265.178L281.276 265.002L323.698 265.355Z" fill="#A89F9E"/>
<path d="M325.81 256.974C320.09 257.239 314.457 257.151 308.824 257.239C303.191 257.151 297.47 257.151 291.838 256.886C297.47 256.622 303.191 256.71 308.824 256.622C314.457 256.71 320.178 256.71 325.81 256.974Z" fill="#A89F9E"/>
<path d="M335.492 266.59C343.149 266.59 345.525 261.12 345.525 259.003C345.525 253.181 340.86 248.417 335.052 248.417H337.78C343.589 248.417 348.253 253.181 348.253 259.003C348.253 264.826 343.589 269.589 337.78 269.589L234.542 269.413V266.502L335.492 266.59Z" fill="#C6BFB8"/>
<path d="M219.403 278.058L349.221 278.234C355.558 278.234 360.663 283.439 360.663 289.878C360.663 296.23 355.47 301.435 349.133 301.435L219.315 301.258L219.403 278.058Z" fill="#DDD7D5"/>
<path d="M219.052 301.258L352.214 301.435C358.551 301.347 363.655 296.23 363.655 289.879C363.655 283.527 358.551 278.411 352.214 278.322L219.052 278.058C218.083 278.058 217.379 277.264 217.379 276.382C217.379 275.411 218.171 274.706 219.052 274.706L353.446 274.97C357.143 275.323 360.575 276.999 363.039 279.822C365.592 282.645 367 286.262 367 289.967C367 293.76 365.592 297.377 363.039 300.111C360.487 302.846 357.055 304.61 353.358 304.875L218.964 304.61C217.995 304.61 217.291 303.817 217.291 302.934C217.379 301.964 218.171 301.258 219.052 301.258Z" fill="#A53616"/>
<path d="M329.771 282.557C322.114 282.821 314.457 282.733 306.888 282.821C299.23 282.733 291.573 282.733 284.004 282.468C291.661 282.204 299.319 282.292 306.888 282.204C314.545 282.292 322.114 282.292 329.771 282.557Z" fill="#A89F9E"/>
<path d="M349.046 289.879C331.267 290.143 313.401 290.143 295.622 289.79C313.401 289.526 331.267 289.526 349.046 289.879Z" fill="#A89F9E"/>
<path d="M317.273 295.083C284.621 295.348 252.056 295.26 219.404 294.907C252.056 294.642 284.621 294.731 317.273 295.083Z" fill="#A89F9E"/>
<path d="M321.498 291.996C287.437 292.26 253.464 292.172 219.404 291.819C253.464 291.555 287.437 291.643 321.498 291.996Z" fill="#A89F9E"/>
<path d="M321.498 286.085C304.511 286.35 287.437 286.262 270.451 286.35C253.464 286.174 236.39 286.262 219.404 285.909C236.39 285.644 253.464 285.733 270.451 285.644C287.437 285.821 304.511 285.733 321.498 286.085Z" fill="#A89F9E"/>
<path d="M298.174 279.91C271.947 280.175 245.719 280.087 219.492 279.734C245.719 279.558 271.947 279.557 298.174 279.91Z" fill="#A89F9E"/>
<path d="M331.179 296.848C314.897 297.112 298.614 297.112 282.332 296.76C298.614 296.495 314.897 296.583 331.179 296.848Z" fill="#A89F9E"/>
<path d="M333.467 287.761C329.155 288.114 324.842 288.026 320.617 288.114C316.305 287.938 311.992 288.026 307.768 287.761C312.08 287.409 316.393 287.497 320.617 287.409C324.93 287.497 329.243 287.409 333.467 287.761Z" fill="#A89F9E"/>
<path d="M349.75 298.259C358.199 298.259 360.751 292.261 360.751 289.879C360.751 283.439 355.646 278.234 349.309 278.234H352.302C358.639 278.234 363.743 283.439 363.743 289.879C363.743 296.23 358.551 301.435 352.214 301.435L219.404 301.17V297.995L349.75 298.259Z" fill="#C6BFB8"/>
<path d="M325.458 118.476C325.458 118.476 327.658 123.064 327.658 128.974C327.658 134.884 325.37 139.472 325.37 139.472L252.848 139.383C252.848 139.383 251.616 136.825 251.616 128.886C251.616 120.946 252.848 118.388 252.848 118.388L325.458 118.476Z" fill="#EC4E20"/>
<path d="M267.634 123.769C270.45 123.769 272.738 126.063 272.738 128.885C272.738 131.708 270.45 134.002 267.634 134.002C264.818 134.002 262.529 131.708 262.529 128.885C262.529 126.063 264.818 123.769 267.634 123.769Z" fill="#D22E1A"/>
<path d="M254.96 128.886C254.96 136.825 256.192 139.383 256.192 139.383H261.121C261.121 139.383 259.889 136.825 259.889 128.886C259.889 120.858 261.121 118.388 261.121 118.388H256.192C256.28 118.388 255.048 120.858 254.96 128.886Z" fill="#D22E1A"/>
<path d="M319.913 128.974C319.913 136.913 318.681 139.472 318.681 139.472H313.753C313.753 139.472 314.985 136.913 314.985 128.974C314.985 120.946 313.753 118.476 313.753 118.476H318.681C318.681 118.476 319.913 120.946 319.913 128.974Z" fill="#D22E1A"/>
<path d="M324.49 128.974C324.49 136.913 323.258 139.472 323.258 139.472H320.794C320.794 139.472 322.026 136.913 322.026 128.974C322.026 120.946 320.794 118.476 320.794 118.476H323.258C323.258 118.476 324.49 120.946 324.49 128.974Z" fill="#D22E1A"/>
<path d="M331.795 139.472C331.795 139.472 334.435 144.853 334.435 151.822C334.435 158.791 331.795 164.172 331.795 164.172L246.335 163.995C246.335 163.995 244.927 160.996 244.927 151.645C244.927 142.206 246.423 139.295 246.423 139.295L331.795 139.472Z" fill="#A53616"/>
<path d="M256.633 139.383C256.633 139.383 256.193 140.265 255.841 142.471C253.64 143.794 251.968 147.499 251.968 151.822C251.968 156.144 253.552 159.849 255.753 161.172C256.105 163.378 256.545 164.26 256.545 164.26H262.353C262.353 164.26 261.737 162.937 261.297 159.408C262.529 157.644 263.322 154.909 263.322 151.91C263.322 148.911 262.529 146.176 261.297 144.412C261.737 140.883 262.353 139.56 262.353 139.56L256.633 139.383Z" fill="#EF714C"/>
<path d="M325.282 151.822C325.282 161.261 323.786 164.172 323.786 164.172H317.977C317.977 164.172 319.473 161.172 319.473 151.822C319.473 142.383 318.065 139.471 318.065 139.471H323.874C323.874 139.471 325.282 142.471 325.282 151.822Z" fill="#EF714C"/>
<path d="M330.651 151.822C330.651 161.261 329.155 164.172 329.155 164.172H326.25C326.25 164.172 327.746 161.172 327.746 151.822C327.746 142.383 326.338 139.471 326.338 139.471H329.243C329.155 139.471 330.651 142.471 330.651 151.822Z" fill="#EF714C"/>
<path d="M325.37 164.26C325.37 164.26 327.57 168.847 327.57 174.758C327.57 180.668 325.282 185.255 325.282 185.255L252.76 185.167C252.76 185.167 251.528 182.609 251.528 174.67C251.528 166.642 252.76 164.172 252.76 164.172L325.37 164.26Z" fill="#F6A444"/>
<path d="M260.241 174.581C260.241 182.609 261.473 185.079 261.473 185.079H266.402C266.402 185.079 265.17 182.521 265.17 174.581C265.17 166.554 266.402 164.084 266.402 164.084H261.473C261.561 164.084 260.329 166.642 260.241 174.581Z" fill="#FACC73"/>
<path d="M279.164 174.669C279.164 182.609 280.396 185.167 280.396 185.167H303.719C303.719 185.167 304.599 182.609 304.599 174.669C304.599 166.642 303.719 164.172 303.719 164.172H280.484C280.396 164.172 279.164 166.642 279.164 174.669Z" fill="#FACC73"/>
<path d="M255.752 174.581C255.752 182.521 256.985 185.079 256.985 185.079H259.449C259.449 185.079 258.217 182.521 258.217 174.581C258.217 166.554 259.449 164.084 259.449 164.084H256.985C256.985 164.084 255.752 166.642 255.752 174.581Z" fill="#FACC73"/>
<path d="M343.325 185.255C343.325 185.255 345.877 190.372 345.877 197.076C345.877 203.78 343.325 208.897 343.325 208.897L234.454 208.72C234.454 208.72 233.045 205.898 233.045 196.9C233.045 187.902 234.454 185.079 234.454 185.079L343.325 185.255Z" fill="#A53616"/>
<path d="M236.83 196.9C236.83 205.898 238.238 208.72 238.238 208.72H243.783C243.783 208.72 242.375 205.898 242.375 196.9C242.375 187.902 243.783 185.079 243.783 185.079H238.238C238.238 185.079 236.83 187.902 236.83 196.9Z" fill="#EF714C"/>
<path d="M297.822 307.61C298.614 307.61 299.231 306.992 299.231 306.198C299.231 305.405 298.614 304.787 297.822 304.787L220.284 304.699C217.203 304.963 214.387 306.375 212.275 308.669C210.162 310.962 208.93 313.961 208.93 317.137C208.93 320.313 210.074 323.312 212.187 325.606C214.299 327.899 217.115 329.311 220.196 329.664L297.734 329.752C298.526 329.752 299.143 329.134 299.143 328.34C299.143 327.547 298.526 326.929 297.734 326.929H297.47V307.698H297.822V307.61Z" fill="#A53616"/>
<path d="M357.759 307.698L300.463 307.61C295.182 307.61 290.869 311.932 290.869 317.225C290.869 322.518 295.094 326.841 300.375 326.841L357.671 326.929L357.759 307.698Z" fill="#DDD7D5"/>
<path d="M358.023 326.929L297.91 326.841C292.718 326.753 288.405 322.43 288.405 317.225C288.405 311.933 292.718 307.698 297.91 307.61L358.023 307.698C358.815 307.698 359.431 307.081 359.431 306.287C359.431 305.493 358.815 304.875 358.023 304.875L296.942 304.787C293.862 305.052 291.045 306.463 288.933 308.757C286.821 311.05 285.589 314.05 285.589 317.225C285.589 320.313 286.733 323.312 288.845 325.694C290.957 327.988 293.774 329.399 296.854 329.664L357.935 329.752C358.727 329.752 359.343 329.134 359.343 328.341C359.431 327.547 358.815 326.929 358.023 326.929Z" fill="#EF714C"/>
<path d="M316.657 311.227C320.265 310.962 323.874 311.05 327.483 310.962C331.091 311.05 334.699 311.05 338.308 311.315C334.699 311.58 331.091 311.491 327.483 311.58C323.874 311.403 320.265 311.491 316.657 311.227Z" fill="#A89F9E"/>
<path d="M300.639 317.225C309.968 316.961 319.297 316.961 328.627 317.225C319.297 317.578 309.968 317.578 300.639 317.225Z" fill="#A89F9E"/>
<path d="M327.042 321.636C337.252 321.372 347.461 321.372 357.759 321.636C347.549 321.989 337.252 321.989 327.042 321.636Z" fill="#A89F9E"/>
<path d="M323.522 319.078C334.964 318.813 346.317 318.813 357.759 319.166C346.317 319.342 334.964 319.342 323.522 319.078Z" fill="#A89F9E"/>
<path d="M323.61 314.138C329.331 313.873 335.052 313.961 340.684 313.785C346.405 313.961 352.126 313.873 357.759 314.138C352.038 314.402 346.317 314.314 340.684 314.491C334.964 314.402 329.243 314.491 323.61 314.138Z" fill="#A89F9E"/>
<path d="M326.514 309.11C336.9 308.845 347.373 308.845 357.759 309.198C347.373 309.374 336.9 309.374 326.514 309.11Z" fill="#A89F9E"/>
<path d="M315.425 323.136C323.434 322.871 331.531 322.871 339.54 323.136C331.531 323.489 323.522 323.4 315.425 323.136Z" fill="#A89F9E"/>
<path d="M313.577 315.549C317.185 315.196 320.706 315.285 324.314 315.196C327.923 315.373 331.443 315.285 335.052 315.549C331.443 315.902 327.923 315.814 324.314 315.902C320.706 315.726 317.097 315.814 313.577 315.549Z" fill="#A89F9E"/>
<path d="M300.023 324.194C292.982 324.194 290.869 319.166 290.869 317.225C290.869 311.932 295.182 307.61 300.463 307.61H297.998C292.718 307.61 288.405 311.932 288.405 317.225C288.405 322.518 292.63 326.841 297.91 326.841L357.671 326.929V324.283L300.023 324.194Z" fill="#C6BFB8"/>
<path d="M197.224 87.4246C197.224 87.4246 199.777 92.7174 199.777 99.51C199.777 106.303 197.136 111.596 197.136 111.596L113.789 111.419C113.789 111.419 112.381 108.508 112.381 99.3336C112.381 90.1592 113.789 87.2482 113.789 87.2482L197.224 87.4246Z" fill="#EC4E20"/>
<path d="M130.863 93.5113C134.119 93.5113 136.759 96.1575 136.759 99.4212C136.759 102.685 134.119 105.331 130.863 105.331C127.607 105.331 124.967 102.685 124.967 99.4212C124.967 96.0693 127.607 93.4231 130.863 93.5113Z" fill="#D22E1A"/>
<path d="M116.341 99.3336C116.341 108.508 117.749 111.419 117.749 111.419H123.47C123.47 111.419 122.062 108.508 122.062 99.3336C122.062 90.1592 123.47 87.2482 123.47 87.2482H117.749C117.749 87.2482 116.341 90.1592 116.341 99.3336Z" fill="#D22E1A"/>
<path d="M190.888 99.4218C190.888 108.596 189.479 111.507 189.479 111.507H183.759C183.759 111.507 185.167 108.596 185.167 99.4218C185.167 90.2474 183.759 87.3363 183.759 87.3363H189.479C189.479 87.4245 190.888 90.2474 190.888 99.4218Z" fill="#D22E1A"/>
<path d="M196.08 99.51C196.08 108.684 194.672 111.596 194.672 111.596H191.856C191.856 111.596 193.264 108.684 193.264 99.51C193.264 90.3356 191.856 87.4246 191.856 87.4246H194.672C194.672 87.4246 196.08 90.3356 196.08 99.51Z" fill="#D22E1A"/>
<path d="M204.442 111.507C204.442 111.507 207.434 117.682 207.434 125.71C207.434 133.738 204.354 139.913 204.354 139.913L106.22 139.736C106.22 139.736 104.548 136.296 104.548 125.534C104.548 114.771 106.22 111.331 106.22 111.331L204.442 111.507Z" fill="#A53616"/>
<path d="M118.19 111.419C118.19 111.419 117.75 112.389 117.222 114.948C114.669 116.536 112.821 120.682 112.821 125.622C112.821 130.562 114.669 134.796 117.222 136.296C117.662 138.854 118.102 139.824 118.102 139.824H124.791C124.791 139.824 124.086 138.325 123.558 134.267C124.967 132.15 125.847 129.062 125.935 125.622C125.935 122.181 125.055 119.006 123.646 116.977C124.175 112.919 124.879 111.419 124.879 111.419H118.19Z" fill="#EF714C"/>
<path d="M197.048 125.71C197.048 136.472 195.376 139.913 195.376 139.913H188.687C188.687 139.913 190.36 136.472 190.36 125.71C190.36 114.948 188.687 111.507 188.687 111.507H195.376C195.376 111.507 197.048 114.948 197.048 125.71Z" fill="#EF714C"/>
<path d="M203.121 125.71C203.121 136.472 201.449 139.913 201.449 139.913H198.105C198.105 139.913 199.777 136.472 199.777 125.71C199.777 114.948 198.105 111.507 198.105 111.507H201.449C201.537 111.507 203.209 114.948 203.121 125.71Z" fill="#EF714C"/>
<path d="M216.499 188.166C216.499 188.166 219.051 193.459 219.051 200.252C219.051 207.045 216.411 212.337 216.411 212.337L94.2503 212.161C94.2503 212.161 92.8422 209.25 92.8422 200.075C92.8422 190.901 94.2503 187.99 94.2503 187.99L216.499 188.166Z" fill="#F6A444"/>
<path d="M96.7144 200.075C96.7144 209.25 98.1226 212.161 98.1226 212.161H103.843C103.843 212.161 102.435 209.25 102.435 200.075C102.435 190.901 103.843 187.99 103.843 187.99H98.1226C98.2106 187.99 96.7144 190.901 96.7144 200.075Z" fill="#FACC73"/>
<path d="M210.162 200.252C210.162 209.426 208.754 212.337 208.754 212.337H203.033C203.033 212.337 204.441 209.426 204.441 200.252C204.441 191.078 203.033 188.166 203.033 188.166H208.754C208.754 188.166 210.162 191.078 210.162 200.252Z" fill="#FACC73"/>
<path d="M215.355 200.252C215.355 209.426 213.947 212.337 213.947 212.337H211.13C211.13 212.337 212.539 209.426 212.539 200.252C212.539 191.078 211.13 188.166 211.13 188.166H213.947C213.947 188.166 215.355 191.078 215.355 200.252Z" fill="#FACC73"/>
<path d="M197.137 139.913C197.137 139.913 199.689 145.205 199.689 151.998C199.689 158.791 197.048 164.084 197.048 164.084L113.701 163.907C113.701 163.907 112.293 160.996 112.293 151.822C112.293 142.647 113.701 139.736 113.701 139.736L197.137 139.913Z" fill="#F6A444"/>
<path d="M122.414 151.91C122.414 161.084 123.822 163.995 123.822 163.995H129.543C129.543 163.995 128.135 161.084 128.135 151.91C128.135 142.735 129.543 139.824 129.543 139.824H123.822C123.822 139.824 122.414 142.735 122.414 151.91Z" fill="#F9BA81"/>
<path d="M144.065 151.91C144.065 161.084 145.473 163.995 145.473 163.995H172.229C172.229 163.995 173.197 161.084 173.197 151.91C173.197 142.735 172.229 139.824 172.229 139.824H145.473C145.473 139.824 144.065 142.735 144.065 151.91Z" fill="#F9BA81"/>
<path d="M117.221 151.91C117.221 161.084 118.63 163.995 118.63 163.995H121.446C121.446 163.995 120.038 161.084 120.038 151.91C120.038 142.735 121.446 139.824 121.446 139.824H118.63C118.63 139.824 117.221 142.735 117.221 151.91Z" fill="#F9BA81"/>
<path d="M210.954 164.084C210.954 164.084 213.507 169.376 213.507 176.169C213.507 182.962 210.954 188.255 210.954 188.255L99.795 188.078C99.795 188.078 98.3868 185.167 98.3868 175.993C98.3868 166.818 99.795 163.907 99.795 163.907L210.954 164.084Z" fill="#A53616"/>
<path d="M102.259 175.993C102.259 185.167 103.668 188.078 103.668 188.078H109.388C109.388 188.078 107.98 185.167 107.98 175.993C107.98 166.818 109.388 163.907 109.388 163.907H103.668C103.756 163.907 102.259 166.818 102.259 175.993Z" fill="#EF714C"/>
<path d="M218.876 212.337C218.876 212.337 222.836 220.365 222.836 230.862C222.836 241.272 218.876 249.299 218.876 249.299L91.258 249.123C91.258 249.123 89.0576 244.712 89.1456 230.598C89.1456 216.572 91.3459 212.161 91.3459 212.161L218.876 212.337Z" fill="#EC4E20"/>
<path d="M117.222 221.6C122.15 221.6 126.199 225.658 126.199 230.686C126.199 235.714 122.15 239.684 117.222 239.684C112.205 239.684 108.244 235.626 108.244 230.598C108.156 225.658 112.205 221.6 117.222 221.6Z" fill="#D22E1A"/>
<path d="M94.9543 230.598C94.9543 244.624 97.0667 249.123 97.0667 249.123H105.78C105.78 249.123 103.58 244.712 103.668 230.686C103.668 216.66 105.868 212.249 105.868 212.249H97.1546C97.1546 212.161 94.9543 216.572 94.9543 230.598Z" fill="#D22E1A"/>
<path d="M209.194 230.774C209.194 244.801 206.994 249.211 206.994 249.211H198.281C198.281 249.211 200.481 244.801 200.481 230.774C200.481 216.748 198.369 212.249 198.369 212.249H207.082C206.994 212.337 209.194 216.748 209.194 230.774Z" fill="#D22E1A"/>
<path d="M217.115 230.774C217.115 244.801 214.915 249.211 214.915 249.211H210.602C210.602 249.211 212.803 244.801 212.803 230.686C212.803 216.66 210.69 212.249 210.69 212.249H215.091C215.003 212.337 217.203 216.748 217.115 230.774Z" fill="#D22E1A"/>
<path d="M229.965 249.3C229.965 249.3 234.63 258.739 234.542 271.089C234.542 283.351 229.877 292.878 229.877 292.878L79.5523 292.613C79.5523 292.613 77 287.409 77 270.824C77 254.328 79.6404 249.035 79.6404 249.035L229.965 249.3Z" fill="#A53616"/>
<path d="M97.7709 249.123C97.7709 249.123 97.0668 250.623 96.3627 254.504C92.4021 256.886 89.5857 263.326 89.5857 270.912C89.5857 278.499 92.4021 284.939 96.2746 287.32C96.9787 291.202 97.6829 292.702 97.6829 292.702H107.98C107.98 292.702 106.836 290.408 106.132 284.233C108.332 281.057 109.74 276.294 109.74 271.001C109.74 265.708 108.332 260.944 106.22 257.768C107.012 251.505 108.068 249.3 108.068 249.3L97.7709 249.123Z" fill="#EF714C"/>
<path d="M218.611 271.089C218.611 287.585 215.971 292.878 215.971 292.878H205.674C205.674 292.878 208.226 287.673 208.314 271.089C208.314 254.592 205.762 249.3 205.762 249.3H216.059C216.059 249.3 218.611 254.504 218.611 271.089Z" fill="#EF714C"/>
<path d="M227.941 271.089C227.941 287.585 225.3 292.878 225.3 292.878H220.196C220.196 292.878 222.748 287.673 222.836 271.089C222.836 254.592 220.284 249.3 220.284 249.3H225.388C225.476 249.3 228.029 254.504 227.941 271.089Z" fill="#EF714C"/>
<path d="M218.7 292.79C218.7 292.79 222.66 300.817 222.66 311.315C222.66 321.724 218.7 329.752 218.7 329.752L91.0819 329.575C91.0819 329.575 88.8816 325.165 88.9696 311.05C88.9696 297.024 91.1699 292.613 91.1699 292.613L218.7 292.79Z" fill="#F6A444"/>
<path d="M104.284 311.138C104.284 325.165 106.396 329.575 106.396 329.575H115.109C115.109 329.575 112.909 325.165 112.997 311.138C112.997 297.112 115.197 292.701 115.197 292.701H106.484C106.484 292.613 104.284 297.112 104.284 311.138Z" fill="#F9BA81"/>
<path d="M137.464 311.138C137.464 325.165 139.665 329.575 139.665 329.575L180.59 329.664C180.59 329.664 182.086 325.253 182.174 311.227C182.174 297.2 180.678 292.79 180.678 292.79L139.753 292.701C139.665 292.701 137.464 297.112 137.464 311.138Z" fill="#F9BA81"/>
<path d="M96.2747 311.138C96.2747 325.165 98.387 329.575 98.387 329.575H102.788C102.788 329.575 100.587 325.165 100.675 311.138C100.675 297.112 102.876 292.613 102.876 292.613H98.5631C98.475 292.613 96.2747 297.024 96.2747 311.138Z" fill="#F9BA81"/>
</svg>
