<svg width="218" height="49" viewBox="0 0 218 49" fill="none" xmlns="http://www.w3.org/2000/svg">
<path d="M118.447 30.5067C119.416 29.0133 121.12 28.2667 123.56 28.2667V31.44C123.273 31.3867 123.013 31.36 122.78 31.36C121.47 31.36 120.447 31.7422 119.712 32.5067C118.976 33.2533 118.608 34.3378 118.608 35.76V42.6667H115.244V28.4267H118.447V30.5067Z" fill="#343F3E"/>
<path d="M133.119 40.0267C134.68 40.0267 135.981 39.5111 137.021 38.48L138.798 40.5333C138.17 41.2978 137.362 41.8756 136.375 42.2667C135.389 42.6578 134.276 42.8533 133.038 42.8533C131.459 42.8533 130.069 42.5422 128.866 41.92C127.664 41.2978 126.731 40.4356 126.067 39.3333C125.422 38.2133 125.099 36.9511 125.099 35.5467C125.099 34.16 125.413 32.9156 126.041 31.8133C126.686 30.6933 127.566 29.8222 128.678 29.2C129.808 28.5778 131.082 28.2667 132.5 28.2667C133.845 28.2667 135.066 28.56 136.16 29.1467C137.272 29.7156 138.152 30.5422 138.798 31.6267C139.444 32.6933 139.766 33.9467 139.766 35.3867L128.759 37.52C129.1 38.3378 129.647 38.96 130.401 39.3867C131.154 39.8133 132.06 40.0267 133.119 40.0267ZM132.5 30.9333C131.262 30.9333 130.257 31.3333 129.486 32.1333C128.732 32.9333 128.355 34.0089 128.355 35.36V35.3867L136.483 33.84C136.25 32.9689 135.774 32.2667 135.057 31.7333C134.357 31.2 133.505 30.9333 132.5 30.9333Z" fill="#343F3E"/>
<path d="M157.048 28.4267V42.6667H153.845V40.8267C153.289 41.5022 152.598 42.0089 151.772 42.3467C150.965 42.6844 150.068 42.8533 149.081 42.8533C147.682 42.8533 146.426 42.5511 145.313 41.9467C144.219 41.3422 143.357 40.4889 142.729 39.3867C142.119 38.2844 141.814 37.0044 141.814 35.5467C141.814 34.0889 142.119 32.8178 142.729 31.7333C143.357 30.6311 144.219 29.7778 145.313 29.1733C146.426 28.5689 147.682 28.2667 149.081 28.2667C150.014 28.2667 150.866 28.4267 151.638 28.7467C152.427 29.0667 153.109 29.5378 153.683 30.16V28.4267H157.048ZM149.458 40C150.696 40 151.719 39.5911 152.526 38.7733C153.333 37.9556 153.737 36.88 153.737 35.5467C153.737 34.2133 153.333 33.1378 152.526 32.32C151.719 31.5022 150.696 31.0933 149.458 31.0933C148.22 31.0933 147.197 31.5022 146.39 32.32C145.6 33.1378 145.206 34.2133 145.206 35.5467C145.206 36.88 145.6 37.9556 146.39 38.7733C147.197 39.5911 148.22 40 149.458 40Z" fill="#343F3E"/>
<path d="M175.525 22.88V42.6667H172.295V40.8267C171.739 41.5022 171.048 42.0089 170.223 42.3467C169.416 42.6844 168.518 42.8533 167.532 42.8533C166.15 42.8533 164.903 42.5511 163.791 41.9467C162.696 41.3422 161.835 40.4889 161.207 39.3867C160.579 38.2667 160.265 36.9867 160.265 35.5467C160.265 34.1067 160.579 32.8356 161.207 31.7333C161.835 30.6311 162.696 29.7778 163.791 29.1733C164.903 28.5689 166.15 28.2667 167.532 28.2667C168.483 28.2667 169.353 28.4267 170.142 28.7467C170.932 29.0667 171.605 29.5467 172.161 30.1867V22.88H175.525ZM167.935 40C168.743 40 169.469 39.8222 170.115 39.4667C170.761 39.0933 171.273 38.5689 171.649 37.8933C172.026 37.2178 172.215 36.4356 172.215 35.5467C172.215 34.6578 172.026 33.8756 171.649 33.2C171.273 32.5244 170.761 32.0089 170.115 31.6533C169.469 31.28 168.743 31.0933 167.935 31.0933C167.128 31.0933 166.401 31.28 165.755 31.6533C165.109 32.0089 164.598 32.5244 164.221 33.2C163.844 33.8756 163.656 34.6578 163.656 35.5467C163.656 36.4356 163.844 37.2178 164.221 37.8933C164.598 38.5689 165.109 39.0933 165.755 39.4667C166.401 39.8222 167.128 40 167.935 40Z" fill="#343F3E"/>
<path d="M186.762 40.0267C188.323 40.0267 189.624 39.5111 190.664 38.48L192.441 40.5333C191.813 41.2978 191.005 41.8756 190.019 42.2667C189.032 42.6578 187.919 42.8533 186.681 42.8533C185.102 42.8533 183.712 42.5422 182.51 41.92C181.308 41.2978 180.374 40.4356 179.711 39.3333C179.065 38.2133 178.742 36.9511 178.742 35.5467C178.742 34.16 179.056 32.9156 179.684 31.8133C180.33 30.6933 181.209 29.8222 182.321 29.2C183.452 28.5778 184.726 28.2667 186.143 28.2667C187.489 28.2667 188.709 28.56 189.803 29.1467C190.916 29.7156 191.795 30.5422 192.441 31.6267C193.087 32.6933 193.41 33.9467 193.41 35.3867L182.402 37.52C182.743 38.3378 183.29 38.96 184.044 39.3867C184.797 39.8133 185.703 40.0267 186.762 40.0267ZM186.143 30.9333C184.905 30.9333 183.9 31.3333 183.129 32.1333C182.375 32.9333 181.998 34.0089 181.998 35.36V35.3867L190.126 33.84C189.893 32.9689 189.417 32.2667 188.7 31.7333C188 31.2 187.148 30.9333 186.143 30.9333Z" fill="#343F3E"/>
<path d="M199.844 30.5067C200.813 29.0133 202.518 28.2667 204.958 28.2667V31.44C204.671 31.3867 204.411 31.36 204.178 31.36C202.868 31.36 201.845 31.7422 201.109 32.5067C200.374 33.2533 200.006 34.3378 200.006 35.76V42.6667H196.642V28.4267H199.844V30.5067Z" fill="#343F3E"/>
<path d="M83.486 27.9733C84.8137 27.9733 86.0159 28.2756 87.0924 28.88C88.1869 29.4844 89.0481 30.3556 89.6761 31.4933C90.322 32.6133 90.645 33.92 90.645 35.4133C90.645 36.9067 90.322 38.2222 89.6761 39.36C89.0481 40.4978 88.1869 41.3778 87.0924 42C86.0159 42.6044 84.8137 42.9067 83.486 42.9067C81.5662 42.9067 80.1308 42.3467 79.1798 41.2267V42.6667H74.3085V22.88H79.4221V29.4667C80.4089 28.4711 81.7635 27.9733 83.486 27.9733ZM82.4095 38.88C83.3066 38.88 84.0422 38.5778 84.6164 37.9733C85.1905 37.3511 85.4776 36.4978 85.4776 35.4133C85.4776 34.3467 85.1905 33.5111 84.6164 32.9067C84.0422 32.3022 83.3066 32 82.4095 32C81.5123 32 80.7767 32.3022 80.2025 32.9067C79.6284 33.5111 79.3413 34.3467 79.3413 35.4133C79.3413 36.4978 79.6284 37.3511 80.2025 37.9733C80.7767 38.5778 81.5123 38.88 82.4095 38.88Z" fill="#343F3E"/>
<path d="M108.712 28.2133V40.0267C108.712 42.7111 107.977 44.72 106.506 46.0533C105.034 47.4044 102.917 48.08 100.154 48.08C98.7185 48.08 97.3728 47.92 96.1169 47.6C94.8609 47.28 93.7933 46.8089 92.9142 46.1867L94.7712 42.64C95.3633 43.12 96.1079 43.4933 97.005 43.76C97.9201 44.0444 98.8172 44.1867 99.6964 44.1867C101.042 44.1867 102.029 43.8933 102.657 43.3067C103.285 42.72 103.599 41.8489 103.599 40.6933V40.2133C102.612 41.3511 101.168 41.92 99.2658 41.92C97.9739 41.92 96.7807 41.6356 95.6863 41.0667C94.5918 40.48 93.7216 39.6622 93.0756 38.6133C92.4297 37.5467 92.1068 36.32 92.1068 34.9333C92.1068 33.5644 92.4297 32.3556 93.0756 31.3067C93.7216 30.24 94.5918 29.4222 95.6863 28.8533C96.7807 28.2667 97.9739 27.9733 99.2658 27.9733C101.347 27.9733 102.872 28.64 103.841 29.9733V28.2133H108.712ZM100.477 37.8933C101.392 37.8933 102.146 37.6178 102.738 37.0667C103.348 36.5156 103.653 35.8044 103.653 34.9333C103.653 34.0622 103.357 33.36 102.765 32.8267C102.172 32.2756 101.41 32 100.477 32C99.5439 32 98.7723 32.2756 98.1623 32.8267C97.5702 33.36 97.2742 34.0622 97.2742 34.9333C97.2742 35.8044 97.5792 36.5156 98.1892 37.0667C98.7993 37.6178 99.5618 37.8933 100.477 37.8933Z" fill="#343F3E"/>
<path d="M21.5309 10.6667C21.5309 16.5101 26.3882 21.3333 32.273 21.3333H64.5926L64.4992 16.0464C61.5101 16.0464 59.1749 13.6348 59.1749 10.7594C59.1749 7.7913 61.6035 5.37971 64.5926 5.37971V0H32.273C26.3882 0 21.5309 4.82319 21.5309 10.6667ZM55.2517 15.9536H32.273C29.2839 15.9536 26.8552 13.542 26.8552 10.5739C26.8552 7.60579 29.2839 5.1942 32.273 5.1942H55.2517C54.3176 6.77101 53.7571 8.62608 53.7571 10.5739C53.7571 12.6145 54.3176 14.4696 55.2517 15.9536Z" fill="#343F3E"/>
<path d="M0 31.9959C0 40.7981 7.26852 48 16.1523 48H64.6091V39.9979C60.1223 39.9979 56.5329 36.4415 56.5329 31.9959C56.5329 27.5503 60.1223 23.9939 64.6091 23.9939V15.9918H16.1523C7.26852 15.9918 0 23.1937 0 31.9959ZM50.6104 39.9979H16.1523C11.6655 39.9979 8.07613 36.4415 8.07613 31.9959C8.07613 27.5503 11.6655 23.9939 16.1523 23.9939H50.6104C49.2644 26.3945 48.4568 29.0618 48.4568 31.9959C48.4568 34.93 49.2644 37.6862 50.6104 39.9979Z" fill="#343F3E"/>
</svg>
