<svg width="454" height="102" viewBox="0 0 454 102" fill="none" xmlns="http://www.w3.org/2000/svg">
<path d="M246.673 64.1911C248.691 61.0488 252.241 59.4777 257.323 59.4777V66.1549C256.725 66.0427 256.183 65.9866 255.697 65.9866C252.97 65.9866 250.84 66.7909 249.308 68.3994C247.776 69.9705 247.01 72.2523 247.01 75.2449V89.7777H240.004V59.8144H246.673V64.1911Z" fill="white"/>
<path d="M277.229 84.2227C280.48 84.2227 283.189 83.1379 285.356 80.9683L289.055 85.2888C287.748 86.8973 286.066 88.1131 284.011 88.936C281.956 89.759 279.639 90.1705 277.061 90.1705C273.773 90.1705 270.877 89.5159 268.373 88.2066C265.87 86.8973 263.927 85.0831 262.544 82.7638C261.199 80.4072 260.526 77.7512 260.526 74.796C260.526 71.8783 261.18 69.2598 262.488 66.9405C263.833 64.5838 265.664 62.7509 267.981 61.4416C270.335 60.1323 272.988 59.4777 275.94 59.4777C278.742 59.4777 281.283 60.0949 283.563 61.3294C285.879 62.5264 287.71 64.2659 289.055 66.5477C290.401 68.7922 291.073 71.4294 291.073 74.4594L268.149 78.9483C268.859 80.669 269.999 81.9783 271.568 82.876C273.137 83.7738 275.024 84.2227 277.229 84.2227ZM275.94 65.0888C273.362 65.0888 271.269 65.9305 269.662 67.6138C268.093 69.2972 267.308 71.5603 267.308 74.4033V74.4594L284.235 71.2049C283.749 69.372 282.759 67.8944 281.265 66.7722C279.807 65.6499 278.032 65.0888 275.94 65.0888Z" fill="white"/>
<path d="M327.062 59.8144V89.7777H320.392V85.906C319.234 87.3275 317.795 88.3936 316.077 89.1044C314.395 89.8151 312.527 90.1705 310.472 90.1705C307.557 90.1705 304.941 89.5346 302.625 88.2627C300.345 86.9909 298.552 85.1953 297.244 82.876C295.974 80.5568 295.338 77.8635 295.338 74.796C295.338 71.7286 295.974 69.054 297.244 66.7722C298.552 64.4529 300.345 62.6573 302.625 61.3855C304.941 60.1136 307.557 59.4777 310.472 59.4777C312.415 59.4777 314.19 59.8144 315.796 60.4877C317.44 61.1611 318.86 62.1524 320.056 63.4616V59.8144H327.062ZM311.256 84.1666C313.835 84.1666 315.964 83.3062 317.646 81.5855C319.327 79.8647 320.168 77.6016 320.168 74.796C320.168 71.9905 319.327 69.7273 317.646 68.0066C315.964 66.2859 313.835 65.4255 311.256 65.4255C308.678 65.4255 306.548 66.2859 304.867 68.0066C303.223 69.7273 302.401 71.9905 302.401 74.796C302.401 77.6016 303.223 79.8647 304.867 81.5855C306.548 83.3062 308.678 84.1666 311.256 84.1666Z" fill="white"/>
<path d="M365.543 48.1433V89.7777H358.817V85.906C357.658 87.3275 356.22 88.3936 354.501 89.1044C352.82 89.8151 350.951 90.1705 348.896 90.1705C346.019 90.1705 343.422 89.5346 341.105 88.2627C338.826 86.9909 337.032 85.1953 335.724 82.876C334.417 80.5194 333.763 77.826 333.763 74.796C333.763 71.766 334.417 69.0914 335.724 66.7722C337.032 64.4529 338.826 62.6573 341.105 61.3855C343.422 60.1136 346.019 59.4777 348.896 59.4777C350.876 59.4777 352.689 59.8144 354.333 60.4877C355.977 61.1611 357.378 62.1711 358.537 63.5177V48.1433H365.543ZM349.737 84.1666C351.418 84.1666 352.932 83.7925 354.277 83.0444C355.622 82.2588 356.687 81.1553 357.472 79.7338C358.256 78.3123 358.649 76.6664 358.649 74.796C358.649 72.9257 358.256 71.2798 357.472 69.8583C356.687 68.4368 355.622 67.352 354.277 66.6038C352.932 65.8183 351.418 65.4255 349.737 65.4255C348.055 65.4255 346.542 65.8183 345.197 66.6038C343.852 67.352 342.787 68.4368 342.002 69.8583C341.217 71.2798 340.825 72.9257 340.825 74.796C340.825 76.6664 341.217 78.3123 342.002 79.7338C342.787 81.1553 343.852 82.2588 345.197 83.0444C346.542 83.7925 348.055 84.1666 349.737 84.1666Z" fill="white"/>
<path d="M388.945 84.2227C392.196 84.2227 394.905 83.1379 397.072 80.9683L400.771 85.2888C399.463 86.8973 397.782 88.1131 395.727 88.936C393.671 89.759 391.355 90.1705 388.777 90.1705C385.488 90.1705 382.592 89.5159 380.089 88.2066C377.585 86.8973 375.642 85.0831 374.26 82.7638C372.915 80.4072 372.242 77.7512 372.242 74.796C372.242 71.8783 372.896 69.2598 374.204 66.9405C375.549 64.5838 377.38 62.7509 379.697 61.4416C382.051 60.1323 384.704 59.4777 387.656 59.4777C390.458 59.4777 392.999 60.0949 395.278 61.3294C397.595 62.5264 399.426 64.2659 400.771 66.5477C402.116 68.7922 402.789 71.4294 402.789 74.4594L379.865 78.9483C380.575 80.669 381.714 81.9783 383.284 82.876C384.853 83.7738 386.74 84.2227 388.945 84.2227ZM387.656 65.0888C385.077 65.0888 382.985 65.9305 381.378 67.6138C379.809 69.2972 379.024 71.5603 379.024 74.4033V74.4594L395.951 71.2049C395.465 69.372 394.475 67.8944 392.98 66.7722C391.523 65.6499 389.748 65.0888 387.656 65.0888Z" fill="white"/>
<path d="M416.19 64.1911C418.208 61.0488 421.757 59.4777 426.839 59.4777V66.1549C426.241 66.0427 425.7 65.9866 425.214 65.9866C422.486 65.9866 420.356 66.7909 418.824 68.3994C417.292 69.9705 416.526 72.2523 416.526 75.2449V89.7777H409.52V59.8144H416.19V64.1911Z" fill="white"/>
<path d="M173.865 58.8605C176.63 58.8605 179.134 59.4964 181.376 60.7682C183.655 62.0401 185.449 63.8731 186.757 66.2671C188.102 68.6238 188.774 71.3732 188.774 74.5155C188.774 77.6577 188.102 80.4258 186.757 82.8199C185.449 85.214 183.655 87.0656 181.376 88.3749C179.134 89.6468 176.63 90.2827 173.865 90.2827C169.867 90.2827 166.878 89.1043 164.897 86.7477V89.7777H154.752V48.1432H165.402V62.0027C167.457 59.9079 170.278 58.8605 173.865 58.8605ZM171.623 81.8099C173.492 81.8099 175.024 81.174 176.219 79.9021C177.415 78.5929 178.013 76.7973 178.013 74.5155C178.013 72.271 177.415 70.5129 176.219 69.241C175.024 67.9692 173.492 67.3332 171.623 67.3332C169.755 67.3332 168.223 67.9692 167.027 69.241C165.832 70.5129 165.234 72.271 165.234 74.5155C165.234 76.7973 165.832 78.5929 167.027 79.9021C168.223 81.174 169.755 81.8099 171.623 81.8099Z" fill="white"/>
<path d="M226.401 59.3655V84.2227C226.401 89.8712 224.869 94.0982 221.805 96.9038C218.741 99.7467 214.332 101.168 208.577 101.168C205.588 101.168 202.786 100.832 200.17 100.158C197.554 99.4849 195.331 98.4936 193.5 97.1843L197.367 89.7216C198.601 90.7316 200.151 91.5171 202.02 92.0782C203.925 92.6767 205.794 92.976 207.625 92.976C210.427 92.976 212.482 92.3588 213.79 91.1243C215.098 89.8899 215.752 88.0569 215.752 85.6255V84.6155C213.697 87.0095 210.689 88.2066 206.728 88.2066C204.037 88.2066 201.552 87.608 199.273 86.411C196.994 85.1766 195.182 83.4558 193.836 81.2488C192.491 79.0043 191.819 76.4232 191.819 73.5055C191.819 70.6251 192.491 68.0814 193.836 65.8744C195.182 63.6299 196.994 61.9092 199.273 60.7121C201.552 59.4777 204.037 58.8605 206.728 58.8605C211.062 58.8605 214.238 60.2632 216.256 63.0688V59.3655H226.401ZM209.25 79.7338C211.156 79.7338 212.725 79.154 213.958 77.9943C215.229 76.8347 215.864 75.3384 215.864 73.5055C215.864 71.6725 215.247 70.1949 214.014 69.0727C212.781 67.9131 211.193 67.3332 209.25 67.3332C207.307 67.3332 205.7 67.9131 204.43 69.0727C203.197 70.1949 202.58 71.6725 202.58 73.5055C202.58 75.3384 203.215 76.8347 204.486 77.9943C205.756 79.154 207.344 79.7338 209.25 79.7338Z" fill="white"/>
<path d="M44.8395 22.4444C44.8395 34.7401 54.9551 44.8889 67.2106 44.8889H134.518L134.324 33.7642C128.099 33.7642 123.236 28.6898 123.236 22.6396C123.236 16.3942 128.293 11.3198 134.518 11.3198V0H67.2106C54.9551 0 44.8395 10.1488 44.8395 22.4444ZM115.065 33.5691H67.2106C60.9856 33.5691 55.9278 28.4947 55.9278 22.2493C55.9278 16.0039 60.9856 10.9295 67.2106 10.9295H115.065C113.12 14.2473 111.953 18.1507 111.953 22.2493C111.953 26.543 113.12 30.4464 115.065 33.5691Z" fill="white"/>
<path d="M0 67.3247C0 85.8461 15.1372 101 33.6382 101H134.553V84.1624C125.209 84.1624 117.734 76.679 117.734 67.3247C117.734 57.9705 125.209 50.4871 134.553 50.4871V33.6495H33.6382C15.1372 33.6495 0 48.8033 0 67.3247ZM105.4 84.1624H33.6382C24.2943 84.1624 16.8191 76.679 16.8191 67.3247C16.8191 57.9705 24.2943 50.4871 33.6382 50.4871H105.4C102.597 55.5384 100.915 61.1509 100.915 67.3247C100.915 73.4985 102.597 79.2982 105.4 84.1624Z" fill="white"/>
</svg>
